<?xml version="1.0" encoding="UTF-8" standalone="no"?>
<!-- Created with Inkscape (http://www.inkscape.org/) -->

<svg
   xmlns:dc="http://purl.org/dc/elements/1.1/"
   xmlns:cc="http://creativecommons.org/ns#"
   xmlns:rdf="http://www.w3.org/1999/02/22-rdf-syntax-ns#"
   xmlns:svg="http://www.w3.org/2000/svg"
   xmlns="http://www.w3.org/2000/svg"
   xmlns:sodipodi="http://sodipodi.sourceforge.net/DTD/sodipodi-0.dtd"
   xmlns:inkscape="http://www.inkscape.org/namespaces/inkscape"
   width="744.09448819"
   height="1052.3622047"
   id="svg2999"
   version="1.1"
   inkscape:version="0.48.5 r10040"
   sodipodi:docname="kumpanie_II.svg">
  <defs
     id="defs3001" />
  <sodipodi:namedview
     id="base"
     pagecolor="#ffffff"
     bordercolor="#666666"
     borderopacity="1.0"
     inkscape:pageopacity="0.0"
     inkscape:pageshadow="2"
     inkscape:zoom="1.7027131"
     inkscape:cx="216.26366"
     inkscape:cy="621.52505"
     inkscape:document-units="px"
     inkscape:current-layer="layer1"
     showgrid="false"
     inkscape:window-width="2560"
     inkscape:window-height="1361"
     inkscape:window-x="1076"
     inkscape:window-y="129"
     inkscape:window-maximized="1" />
  <metadata
     id="metadata3004">
    <rdf:RDF>
      <cc:Work
         rdf:about="">
        <dc:format>image/svg+xml</dc:format>
        <dc:type
           rdf:resource="http://purl.org/dc/dcmitype/StillImage" />
        <dc:title />
      </cc:Work>
    </rdf:RDF>
  </metadata>
  <g
     inkscape:label="Layer 1"
     inkscape:groupmode="layer"
     id="layer1">
    <rect
       y="166.00595"
       x="35.328815"
       height="562.64429"
       width="679.09149"
       id="rect4523"
       style="fill:#000000;fill-opacity:1;stroke:#ffffff;stroke-width:16.62635803;stroke-linecap:round;stroke-linejoin:round;stroke-miterlimit:4;stroke-opacity:1;stroke-dasharray:none;stroke-dashoffset:0" />
    <g
       id="g4529"
       transform="translate(9.5714286,37.142857)">
      <g
         style="fill:#ffffff;fill-opacity:1;stroke:#000000;stroke-opacity:1"
         id="g4459"
         transform="matrix(1.2555954,0,0,1.0632776,-196.02797,-33.200654)">
        <path
           style="fill:#ffffff;fill-opacity:1;stroke:#000000;stroke-width:0.76173091px;stroke-linecap:butt;stroke-linejoin:miter;stroke-opacity:1"
           d="m 361.1865,373.29835 -11.84402,27.63518 c 11.90544,-0.55616 23.96943,1.04195 35.34338,0.33589 l -12.81633,-27.97106 c -4.56811,-1.47989 -6.17899,-1.1167 -10.68303,-10e-6 z"
           id="path4461"
           inkscape:connector-curvature="0"
           sodipodi:nodetypes="ccccc" />
        <path
           style="fill:#ffffff;fill-opacity:1;stroke:#000000;stroke-width:1;stroke-linecap:butt;stroke-linejoin:miter;stroke-miterlimit:4;stroke-opacity:1;stroke-dasharray:none"
           d="m 353.54457,378.89229 c 3.17607,11.47942 7.81466,17.16141 13.81185,17.16141 5.99719,0 8.53875,-5.75919 11.82077,-17.16141 3.28202,-11.40222 -10.19321,-37.51977 -12.14753,-37.51977 -1.95432,0 -16.66116,26.04035 -13.48509,37.51977 z"
           id="path4467"
           inkscape:connector-curvature="0"
           sodipodi:nodetypes="zzzzz" />
        <path
           sodipodi:nodetypes="cccc"
           inkscape:connector-curvature="0"
           id="path4465"
           d="m 378.37289,381.40377 c -5.16716,-12.19015 -5.15934,-21.19617 -5.46195,-28.47593 0,0 6.70439,2.69971 8.45892,6.76946 3.00086,8.90291 -0.60388,21.63933 -2.99697,21.70647 z"
           style="fill:#ffffff;fill-opacity:1;stroke:#000000;stroke-width:1;stroke-linecap:butt;stroke-linejoin:miter;stroke-miterlimit:4;stroke-opacity:1;stroke-dasharray:none" />
        <path
           style="fill:#ffffff;fill-opacity:1;stroke:#000000;stroke-width:1;stroke-linecap:butt;stroke-linejoin:miter;stroke-miterlimit:4;stroke-opacity:1;stroke-dasharray:none"
           d="m 354.59609,381.40377 c 5.16716,-12.19015 5.15934,-21.19617 5.46195,-28.47593 0,0 -6.70439,2.69971 -8.45892,6.76946 -3.00086,8.90291 0.60388,21.63933 2.99697,21.70647 z"
           id="path3070"
           inkscape:connector-curvature="0"
           sodipodi:nodetypes="cccc" />
      </g>
      <path
         transform="matrix(1.0210615,0,0,1.0210615,-104.84643,-4.1467638)"
         d="m 373.25138,330.22937 c 0,6.34602 -5.14447,11.49049 -11.49049,11.49049 -6.34601,0 -11.49048,-5.14447 -11.49048,-11.49049 0,-6.34602 5.14447,-11.49049 11.49048,-11.49049 6.34602,0 11.49049,5.14447 11.49049,11.49049 z"
         sodipodi:ry="11.490485"
         sodipodi:rx="11.490485"
         sodipodi:cy="330.22937"
         sodipodi:cx="361.76089"
         id="path4519"
         style="fill:#ffffff;fill-opacity:1;fill-rule:nonzero;stroke:#000000;stroke-width:1;stroke-linecap:round;stroke-linejoin:round;stroke-miterlimit:4;stroke-opacity:1;stroke-dasharray:none;stroke-dashoffset:0"
         sodipodi:type="arc" />
      <path
         inkscape:transform-center-y="-0.90524674"
         inkscape:transform-center-x="-14.379857"
         style="fill:#ffd42a;fill-opacity:1;stroke:#000000;stroke-opacity:1"
         d="m 276.28576,332.32615 c -1.22843,1.19183 -3.05988,4.73636 -3.8108,9.09783 l 13.28695,-1.62725 z"
         id="path4457"
         inkscape:connector-curvature="0"
         sodipodi:nodetypes="cccc" />
      <path
         inkscape:connector-curvature="0"
         id="path4527"
         d="m 244.58319,385.56679 42.4264,0"
         style="fill:none;stroke:#000000;stroke-width:1px;stroke-linecap:butt;stroke-linejoin:miter;stroke-opacity:1" />
    </g>
    <g
       transform="translate(60.666354,37.142857)"
       id="g3072">
      <g
         transform="matrix(1.2555954,0,0,1.0632776,-196.02797,-33.200654)"
         id="g3074"
         style="fill:#ffffff;fill-opacity:1;stroke:#000000;stroke-opacity:1">
        <path
           sodipodi:nodetypes="ccccc"
           inkscape:connector-curvature="0"
           id="path3076"
           d="m 361.1865,373.29835 -11.84402,27.63518 c 11.90544,-0.55616 23.96943,1.04195 35.34338,0.33589 l -12.81633,-27.97106 c -4.56811,-1.47989 -6.17899,-1.1167 -10.68303,-10e-6 z"
           style="fill:#ffffff;fill-opacity:1;stroke:#000000;stroke-width:0.76173091px;stroke-linecap:butt;stroke-linejoin:miter;stroke-opacity:1" />
        <path
           sodipodi:nodetypes="zzzzz"
           inkscape:connector-curvature="0"
           id="path3078"
           d="m 353.54457,378.89229 c 3.17607,11.47942 7.81466,17.16141 13.81185,17.16141 5.99719,0 8.53875,-5.75919 11.82077,-17.16141 3.28202,-11.40222 -10.19321,-37.51977 -12.14753,-37.51977 -1.95432,0 -16.66116,26.04035 -13.48509,37.51977 z"
           style="fill:#ffffff;fill-opacity:1;stroke:#000000;stroke-width:1;stroke-linecap:butt;stroke-linejoin:miter;stroke-miterlimit:4;stroke-opacity:1;stroke-dasharray:none" />
        <path
           style="fill:#ffffff;fill-opacity:1;stroke:#000000;stroke-width:1;stroke-linecap:butt;stroke-linejoin:miter;stroke-miterlimit:4;stroke-opacity:1;stroke-dasharray:none"
           d="m 378.37289,381.40377 c -5.16716,-12.19015 -5.15934,-21.19617 -5.46195,-28.47593 0,0 6.70439,2.69971 8.45892,6.76946 3.00086,8.90291 -0.60388,21.63933 -2.99697,21.70647 z"
           id="path3080"
           inkscape:connector-curvature="0"
           sodipodi:nodetypes="cccc" />
        <path
           sodipodi:nodetypes="cccc"
           inkscape:connector-curvature="0"
           id="path3082"
           d="m 354.59609,381.40377 c 5.16716,-12.19015 5.15934,-21.19617 5.46195,-28.47593 0,0 -6.70439,2.69971 -8.45892,6.76946 -3.00086,8.90291 0.60388,21.63933 2.99697,21.70647 z"
           style="fill:#ffffff;fill-opacity:1;stroke:#000000;stroke-width:1;stroke-linecap:butt;stroke-linejoin:miter;stroke-miterlimit:4;stroke-opacity:1;stroke-dasharray:none" />
      </g>
      <path
         sodipodi:type="arc"
         style="fill:#ffffff;fill-opacity:1;fill-rule:nonzero;stroke:#000000;stroke-width:1;stroke-linecap:round;stroke-linejoin:round;stroke-miterlimit:4;stroke-opacity:1;stroke-dasharray:none;stroke-dashoffset:0"
         id="path3084"
         sodipodi:cx="361.76089"
         sodipodi:cy="330.22937"
         sodipodi:rx="11.490485"
         sodipodi:ry="11.490485"
         d="m 373.25138,330.22937 c 0,6.34602 -5.14447,11.49049 -11.49049,11.49049 -6.34601,0 -11.49048,-5.14447 -11.49048,-11.49049 0,-6.34602 5.14447,-11.49049 11.49048,-11.49049 6.34602,0 11.49049,5.14447 11.49049,11.49049 z"
         transform="matrix(1.0210615,0,0,1.0210615,-104.84643,-4.1467638)" />
      <path
         sodipodi:nodetypes="cccc"
         inkscape:connector-curvature="0"
         id="path3086"
         d="m 276.28576,332.32615 c -1.22843,1.19183 -3.05988,4.73636 -3.8108,9.09783 l 13.28695,-1.62725 z"
         style="fill:#ffd42a;fill-opacity:1;stroke:#000000;stroke-opacity:1"
         inkscape:transform-center-x="-14.379857"
         inkscape:transform-center-y="-0.90524674" />
      <path
         style="fill:none;stroke:#000000;stroke-width:1px;stroke-linecap:butt;stroke-linejoin:miter;stroke-opacity:1"
         d="m 244.58319,385.56679 42.4264,0"
         id="path3088"
         inkscape:connector-curvature="0" />
    </g>
    <g
       id="g3090"
       transform="translate(115.87237,37.142857)">
      <g
         style="fill:#ffffff;fill-opacity:1;stroke:#000000;stroke-opacity:1"
         id="g3092"
         transform="matrix(1.2555954,0,0,1.0632776,-196.02797,-33.200654)">
        <path
           style="fill:#ffffff;fill-opacity:1;stroke:#000000;stroke-width:0.76173091px;stroke-linecap:butt;stroke-linejoin:miter;stroke-opacity:1"
           d="m 361.1865,373.29835 -11.84402,27.63518 c 11.90544,-0.55616 23.96943,1.04195 35.34338,0.33589 l -12.81633,-27.97106 c -4.56811,-1.47989 -6.17899,-1.1167 -10.68303,-10e-6 z"
           id="path3094"
           inkscape:connector-curvature="0"
           sodipodi:nodetypes="ccccc" />
        <path
           style="fill:#ffffff;fill-opacity:1;stroke:#000000;stroke-width:1;stroke-linecap:butt;stroke-linejoin:miter;stroke-miterlimit:4;stroke-opacity:1;stroke-dasharray:none"
           d="m 353.54457,378.89229 c 3.17607,11.47942 7.81466,17.16141 13.81185,17.16141 5.99719,0 8.53875,-5.75919 11.82077,-17.16141 3.28202,-11.40222 -10.19321,-37.51977 -12.14753,-37.51977 -1.95432,0 -16.66116,26.04035 -13.48509,37.51977 z"
           id="path3096"
           inkscape:connector-curvature="0"
           sodipodi:nodetypes="zzzzz" />
        <path
           sodipodi:nodetypes="cccc"
           inkscape:connector-curvature="0"
           id="path3098"
           d="m 378.37289,381.40377 c -5.16716,-12.19015 -5.15934,-21.19617 -5.46195,-28.47593 0,0 6.70439,2.69971 8.45892,6.76946 3.00086,8.90291 -0.60388,21.63933 -2.99697,21.70647 z"
           style="fill:#ffffff;fill-opacity:1;stroke:#000000;stroke-width:1;stroke-linecap:butt;stroke-linejoin:miter;stroke-miterlimit:4;stroke-opacity:1;stroke-dasharray:none" />
        <path
           style="fill:#ffffff;fill-opacity:1;stroke:#000000;stroke-width:1;stroke-linecap:butt;stroke-linejoin:miter;stroke-miterlimit:4;stroke-opacity:1;stroke-dasharray:none"
           d="m 354.59609,381.40377 c 5.16716,-12.19015 5.15934,-21.19617 5.46195,-28.47593 0,0 -6.70439,2.69971 -8.45892,6.76946 -3.00086,8.90291 0.60388,21.63933 2.99697,21.70647 z"
           id="path3100"
           inkscape:connector-curvature="0"
           sodipodi:nodetypes="cccc" />
      </g>
      <path
         transform="matrix(1.0210615,0,0,1.0210615,-104.84643,-4.1467638)"
         d="m 373.25138,330.22937 c 0,6.34602 -5.14447,11.49049 -11.49049,11.49049 -6.34601,0 -11.49048,-5.14447 -11.49048,-11.49049 0,-6.34602 5.14447,-11.49049 11.49048,-11.49049 6.34602,0 11.49049,5.14447 11.49049,11.49049 z"
         sodipodi:ry="11.490485"
         sodipodi:rx="11.490485"
         sodipodi:cy="330.22937"
         sodipodi:cx="361.76089"
         id="path3102"
         style="fill:#ffffff;fill-opacity:1;fill-rule:nonzero;stroke:#000000;stroke-width:1;stroke-linecap:round;stroke-linejoin:round;stroke-miterlimit:4;stroke-opacity:1;stroke-dasharray:none;stroke-dashoffset:0"
         sodipodi:type="arc" />
      <path
         inkscape:transform-center-y="-0.90524674"
         inkscape:transform-center-x="-14.379857"
         style="fill:#ffd42a;fill-opacity:1;stroke:#000000;stroke-opacity:1"
         d="m 276.28576,332.32615 c -1.22843,1.19183 -3.05988,4.73636 -3.8108,9.09783 l 13.28695,-1.62725 z"
         id="path3104"
         inkscape:connector-curvature="0"
         sodipodi:nodetypes="cccc" />
      <path
         inkscape:connector-curvature="0"
         id="path3106"
         d="m 244.58319,385.56679 42.4264,0"
         style="fill:none;stroke:#000000;stroke-width:1px;stroke-linecap:butt;stroke-linejoin:miter;stroke-opacity:1" />
    </g>
    <g
       transform="matrix(-1,0,0,1,696.64166,37.142857)"
       id="g3108">
      <g
         transform="matrix(1.2555954,0,0,1.0632776,-196.02797,-33.200654)"
         id="g3110"
         style="fill:#ffffff;fill-opacity:1;stroke:#000000;stroke-opacity:1">
        <path
           sodipodi:nodetypes="ccccc"
           inkscape:connector-curvature="0"
           id="path3112"
           d="m 361.1865,373.29835 -11.84402,27.63518 c 11.90544,-0.55616 23.96943,1.04195 35.34338,0.33589 l -12.81633,-27.97106 c -4.56811,-1.47989 -6.17899,-1.1167 -10.68303,-10e-6 z"
           style="fill:#ffffff;fill-opacity:1;stroke:#000000;stroke-width:0.76173091px;stroke-linecap:butt;stroke-linejoin:miter;stroke-opacity:1" />
        <path
           sodipodi:nodetypes="zzzzz"
           inkscape:connector-curvature="0"
           id="path3114"
           d="m 353.54457,378.89229 c 3.17607,11.47942 7.81466,17.16141 13.81185,17.16141 5.99719,0 8.53875,-5.75919 11.82077,-17.16141 3.28202,-11.40222 -10.19321,-37.51977 -12.14753,-37.51977 -1.95432,0 -16.66116,26.04035 -13.48509,37.51977 z"
           style="fill:#ffffff;fill-opacity:1;stroke:#000000;stroke-width:1;stroke-linecap:butt;stroke-linejoin:miter;stroke-miterlimit:4;stroke-opacity:1;stroke-dasharray:none" />
        <path
           style="fill:#ffffff;fill-opacity:1;stroke:#000000;stroke-width:1;stroke-linecap:butt;stroke-linejoin:miter;stroke-miterlimit:4;stroke-opacity:1;stroke-dasharray:none"
           d="m 378.37289,381.40377 c -5.16716,-12.19015 -5.15934,-21.19617 -5.46195,-28.47593 0,0 6.70439,2.69971 8.45892,6.76946 3.00086,8.90291 -0.60388,21.63933 -2.99697,21.70647 z"
           id="path3116"
           inkscape:connector-curvature="0"
           sodipodi:nodetypes="cccc" />
        <path
           sodipodi:nodetypes="cccc"
           inkscape:connector-curvature="0"
           id="path3118"
           d="m 354.59609,381.40377 c 5.16716,-12.19015 5.15934,-21.19617 5.46195,-28.47593 0,0 -6.70439,2.69971 -8.45892,6.76946 -3.00086,8.90291 0.60388,21.63933 2.99697,21.70647 z"
           style="fill:#ffffff;fill-opacity:1;stroke:#000000;stroke-width:1;stroke-linecap:butt;stroke-linejoin:miter;stroke-miterlimit:4;stroke-opacity:1;stroke-dasharray:none" />
      </g>
      <path
         sodipodi:type="arc"
         style="fill:#ffffff;fill-opacity:1;fill-rule:nonzero;stroke:#000000;stroke-width:1;stroke-linecap:round;stroke-linejoin:round;stroke-miterlimit:4;stroke-opacity:1;stroke-dasharray:none;stroke-dashoffset:0"
         id="path3120"
         sodipodi:cx="361.76089"
         sodipodi:cy="330.22937"
         sodipodi:rx="11.490485"
         sodipodi:ry="11.490485"
         d="m 373.25138,330.22937 c 0,6.34602 -5.14447,11.49049 -11.49049,11.49049 -6.34601,0 -11.49048,-5.14447 -11.49048,-11.49049 0,-6.34602 5.14447,-11.49049 11.49048,-11.49049 6.34602,0 11.49049,5.14447 11.49049,11.49049 z"
         transform="matrix(1.0210615,0,0,1.0210615,-104.84643,-4.1467638)" />
      <path
         sodipodi:nodetypes="cccc"
         inkscape:connector-curvature="0"
         id="path3122"
         d="m 276.28576,332.32615 c -1.22843,1.19183 -3.05988,4.73636 -3.8108,9.09783 l 13.28695,-1.62725 z"
         style="fill:#ffd42a;fill-opacity:1;stroke:#000000;stroke-opacity:1"
         inkscape:transform-center-x="-14.379857"
         inkscape:transform-center-y="-0.90524674" />
      <path
         style="fill:none;stroke:#000000;stroke-width:1px;stroke-linecap:butt;stroke-linejoin:miter;stroke-opacity:1"
         d="m 244.58319,385.56679 42.4264,0"
         id="path3124"
         inkscape:connector-curvature="0" />
    </g>
    <g
       id="g3126"
       transform="matrix(-1,0,0,1,750.2326,37.142857)">
      <g
         style="fill:#ffffff;fill-opacity:1;stroke:#000000;stroke-opacity:1"
         id="g3128"
         transform="matrix(1.2555954,0,0,1.0632776,-196.02797,-33.200654)">
        <path
           style="fill:#ffffff;fill-opacity:1;stroke:#000000;stroke-width:0.76173091px;stroke-linecap:butt;stroke-linejoin:miter;stroke-opacity:1"
           d="m 361.1865,373.29835 -11.84402,27.63518 c 11.90544,-0.55616 23.96943,1.04195 35.34338,0.33589 l -12.81633,-27.97106 c -4.56811,-1.47989 -6.17899,-1.1167 -10.68303,-10e-6 z"
           id="path3130"
           inkscape:connector-curvature="0"
           sodipodi:nodetypes="ccccc" />
        <path
           style="fill:#ffffff;fill-opacity:1;stroke:#000000;stroke-width:1;stroke-linecap:butt;stroke-linejoin:miter;stroke-miterlimit:4;stroke-opacity:1;stroke-dasharray:none"
           d="m 353.54457,378.89229 c 3.17607,11.47942 7.81466,17.16141 13.81185,17.16141 5.99719,0 8.53875,-5.75919 11.82077,-17.16141 3.28202,-11.40222 -10.19321,-37.51977 -12.14753,-37.51977 -1.95432,0 -16.66116,26.04035 -13.48509,37.51977 z"
           id="path3132"
           inkscape:connector-curvature="0"
           sodipodi:nodetypes="zzzzz" />
        <path
           sodipodi:nodetypes="cccc"
           inkscape:connector-curvature="0"
           id="path3134"
           d="m 378.37289,381.40377 c -5.16716,-12.19015 -5.15934,-21.19617 -5.46195,-28.47593 0,0 6.70439,2.69971 8.45892,6.76946 3.00086,8.90291 -0.60388,21.63933 -2.99697,21.70647 z"
           style="fill:#ffffff;fill-opacity:1;stroke:#000000;stroke-width:1;stroke-linecap:butt;stroke-linejoin:miter;stroke-miterlimit:4;stroke-opacity:1;stroke-dasharray:none" />
        <path
           style="fill:#ffffff;fill-opacity:1;stroke:#000000;stroke-width:1;stroke-linecap:butt;stroke-linejoin:miter;stroke-miterlimit:4;stroke-opacity:1;stroke-dasharray:none"
           d="m 354.59609,381.40377 c 5.16716,-12.19015 5.15934,-21.19617 5.46195,-28.47593 0,0 -6.70439,2.69971 -8.45892,6.76946 -3.00086,8.90291 0.60388,21.63933 2.99697,21.70647 z"
           id="path3136"
           inkscape:connector-curvature="0"
           sodipodi:nodetypes="cccc" />
      </g>
      <path
         transform="matrix(1.0210615,0,0,1.0210615,-104.84643,-4.1467638)"
         d="m 373.25138,330.22937 c 0,6.34602 -5.14447,11.49049 -11.49049,11.49049 -6.34601,0 -11.49048,-5.14447 -11.49048,-11.49049 0,-6.34602 5.14447,-11.49049 11.49048,-11.49049 6.34602,0 11.49049,5.14447 11.49049,11.49049 z"
         sodipodi:ry="11.490485"
         sodipodi:rx="11.490485"
         sodipodi:cy="330.22937"
         sodipodi:cx="361.76089"
         id="path3138"
         style="fill:#ffffff;fill-opacity:1;fill-rule:nonzero;stroke:#000000;stroke-width:1;stroke-linecap:round;stroke-linejoin:round;stroke-miterlimit:4;stroke-opacity:1;stroke-dasharray:none;stroke-dashoffset:0"
         sodipodi:type="arc" />
      <path
         inkscape:transform-center-y="-0.90524674"
         inkscape:transform-center-x="-14.379857"
         style="fill:#ffd42a;fill-opacity:1;stroke:#000000;stroke-opacity:1"
         d="m 276.28576,332.32615 c -1.22843,1.19183 -3.05988,4.73636 -3.8108,9.09783 l 13.28695,-1.62725 z"
         id="path3140"
         inkscape:connector-curvature="0"
         sodipodi:nodetypes="cccc" />
      <path
         inkscape:connector-curvature="0"
         id="path3142"
         d="m 244.58319,385.56679 42.4264,0"
         style="fill:none;stroke:#000000;stroke-width:1px;stroke-linecap:butt;stroke-linejoin:miter;stroke-opacity:1" />
    </g>
    <rect
       style="fill:#000000;fill-opacity:1;stroke:#ffffff;stroke-width:2.01253676;stroke-linecap:round;stroke-linejoin:round;stroke-miterlimit:4;stroke-opacity:1;stroke-dasharray:none;stroke-dashoffset:0"
       id="rect3960"
       width="278.91602"
       height="80.286415"
       x="238.50627"
       y="424.21234" />
    <g
       id="g4687"
       transform="translate(5.5714286,37.142857)">
      <path
         sodipodi:nodetypes="cccc"
         inkscape:connector-curvature="0"
         id="path3798"
         d="m 269.76892,416.30528 c 2.49651,3.9259 3.7484,6.82016 0.19126,8.47798 l 17.20478,-2.52539 z"
         style="fill:#ffdd55;fill-opacity:1;stroke:#000000;stroke-opacity:1" />
      <path
         sodipodi:nodetypes="cczccc"
         inkscape:connector-curvature="0"
         id="path3794"
         d="m 259.10413,458.76821 -9.21764,31.0622 c 0,0 10.14361,4.16688 15.21542,4.16688 5.07181,0 15.21542,-4.16688 15.21542,-4.16688 l -10.6066,-31.06219 c -4.53543,-2.56888 -6.13478,-1.93843 -10.6066,-10e-6 z"
         style="fill:#ffffff;fill-opacity:1;stroke:#000000;stroke-width:1px;stroke-linecap:butt;stroke-linejoin:miter;stroke-opacity:1" />
      <path
         sodipodi:nodetypes="zccssz"
         inkscape:connector-curvature="0"
         id="path3792"
         d="m 250.60602,430.79186 c 2.64905,-0.005 10.48033,34.47146 10.48033,34.47146 l -3.03046,9.47017 c 0,0 -13.01894,-18.02733 -14.77347,-22.09708 -2.03378,-4.71746 0.12626,-12.37437 1.38895,-15.90991 1.26269,-3.53553 3.2856,-5.92949 5.93465,-5.93464 z"
         style="fill:#ffffff;fill-opacity:1;stroke:#000000;stroke-width:1px;stroke-linecap:butt;stroke-linejoin:miter;stroke-opacity:1" />
      <path
         sodipodi:nodetypes="zzzcz"
         inkscape:connector-curvature="0"
         id="path3022"
         d="m 251.40172,421.90072 c 3.17607,-11.47942 6.81912,-12.62691 12.81631,-12.62691 5.99719,0 9.53429,1.22469 12.81631,12.62691 3.28202,11.40222 -12.2481,51.77032 -12.2481,51.77032 0,0 -16.56059,-40.2909 -13.38452,-51.77032 z"
         style="fill:#ffffff;fill-opacity:1;stroke:#000000;stroke-width:1px;stroke-linecap:butt;stroke-linejoin:miter;stroke-opacity:1" />
      <path
         style="fill:#ffffff;fill-opacity:1;stroke:#000000;stroke-width:1px;stroke-linecap:butt;stroke-linejoin:miter;stroke-opacity:1"
         d="m 278.79273,430.61329 c -2.64905,-0.005 -10.48033,34.47146 -10.48033,34.47146 l 3.03046,9.47017 c 0,0 13.01894,-18.02733 14.77347,-22.09708 2.03378,-4.71746 -0.12626,-12.37437 -1.38895,-15.90991 -1.26269,-3.53553 -3.2856,-5.92949 -5.93465,-5.93464 z"
         id="path3796"
         inkscape:connector-curvature="0"
         sodipodi:nodetypes="zccssz" />
    </g>
    <g
       id="g4680"
       transform="translate(10.571429,37.142857)">
      <path
         style="fill:#ffd42a;fill-opacity:1;stroke:#000000;stroke-opacity:1"
         d="m 321.01892,416.30528 c 2.49651,3.9259 3.7484,6.82016 0.19126,8.47798 l 17.20478,-2.52539 z"
         id="path3818"
         inkscape:connector-curvature="0"
         sodipodi:nodetypes="cccc" />
      <path
         style="fill:#ffffff;fill-opacity:1;stroke:#000000;stroke-width:1px;stroke-linecap:butt;stroke-linejoin:miter;stroke-opacity:1"
         d="m 310.35413,458.76821 -9.21764,31.0622 c 0,0 10.14361,4.16688 15.21542,4.16688 5.07181,0 15.21542,-4.16688 15.21542,-4.16688 l -10.6066,-31.06219 c -4.53543,-2.56888 -6.13478,-1.93843 -10.6066,-10e-6 z"
         id="path3820"
         inkscape:connector-curvature="0"
         sodipodi:nodetypes="cczccc" />
      <path
         style="fill:#ffffff;fill-opacity:1;stroke:#000000;stroke-width:1px;stroke-linecap:butt;stroke-linejoin:miter;stroke-opacity:1"
         d="m 301.85602,430.79186 c 2.64905,-0.005 10.48033,34.47146 10.48033,34.47146 l -3.03046,9.47017 c 0,0 -13.01894,-18.02733 -14.77347,-22.09708 -2.03378,-4.71746 0.12626,-12.37437 1.38895,-15.90991 1.26269,-3.53553 3.2856,-5.92949 5.93465,-5.93464 z"
         id="path3822"
         inkscape:connector-curvature="0"
         sodipodi:nodetypes="zccssz" />
      <path
         style="fill:#ffffff;fill-opacity:1;stroke:#000000;stroke-width:1px;stroke-linecap:butt;stroke-linejoin:miter;stroke-opacity:1"
         d="m 302.65172,421.90072 c 3.17607,-11.47942 6.81912,-12.62691 12.81631,-12.62691 5.99719,0 9.53429,1.22469 12.81631,12.62691 3.28202,11.40222 -12.2481,51.77032 -12.2481,51.77032 0,0 -16.56059,-40.2909 -13.38452,-51.77032 z"
         id="path3824"
         inkscape:connector-curvature="0"
         sodipodi:nodetypes="zzzcz" />
      <path
         sodipodi:nodetypes="zccssz"
         inkscape:connector-curvature="0"
         id="path3826"
         d="m 330.04273,430.61329 c -2.64905,-0.005 -10.48033,34.47146 -10.48033,34.47146 l 3.03046,9.47017 c 0,0 13.01894,-18.02733 14.77347,-22.09708 2.03378,-4.71746 -0.12626,-12.37437 -1.38895,-15.90991 -1.26269,-3.53553 -3.2856,-5.92949 -5.93465,-5.93464 z"
         style="fill:#ffffff;fill-opacity:1;stroke:#000000;stroke-width:1px;stroke-linecap:butt;stroke-linejoin:miter;stroke-opacity:1" />
    </g>
    <g
       id="g4694"
       transform="translate(12.571429,37.142857)">
      <path
         sodipodi:nodetypes="cccc"
         inkscape:connector-curvature="0"
         id="path3854"
         d="m 362.34276,416.30528 c -2.49651,3.9259 -3.7484,6.82016 -0.19126,8.47798 l -17.20478,-2.52539 z"
         style="fill:#ffd42a;fill-opacity:1;stroke:#000000;stroke-opacity:1" />
      <path
         sodipodi:nodetypes="cczccc"
         inkscape:connector-curvature="0"
         id="path3856"
         d="m 373.00755,458.76821 9.21764,31.0622 c 0,0 -10.14361,4.16688 -15.21542,4.16688 -5.07181,0 -15.21542,-4.16688 -15.21542,-4.16688 l 10.6066,-31.06219 c 4.53543,-2.56888 6.13478,-1.93843 10.6066,-10e-6 z"
         style="fill:#ffffff;fill-opacity:1;stroke:#000000;stroke-width:1px;stroke-linecap:butt;stroke-linejoin:miter;stroke-opacity:1" />
      <path
         sodipodi:nodetypes="zccssz"
         inkscape:connector-curvature="0"
         id="path3858"
         d="m 381.50566,430.79186 c -2.64905,-0.005 -10.48033,34.47146 -10.48033,34.47146 l 3.03046,9.47017 c 0,0 13.01894,-18.02733 14.77347,-22.09708 2.03378,-4.71746 -0.12626,-12.37437 -1.38895,-15.90991 -1.26269,-3.53553 -3.2856,-5.92949 -5.93465,-5.93464 z"
         style="fill:#ffffff;fill-opacity:1;stroke:#000000;stroke-width:1px;stroke-linecap:butt;stroke-linejoin:miter;stroke-opacity:1" />
      <path
         sodipodi:nodetypes="zzzcz"
         inkscape:connector-curvature="0"
         id="path3860"
         d="m 380.70996,421.90072 c -3.17607,-11.47942 -6.81912,-12.62691 -12.81631,-12.62691 -5.99719,0 -9.53429,1.22469 -12.81631,12.62691 -3.28202,11.40222 12.2481,51.77032 12.2481,51.77032 0,0 16.56059,-40.2909 13.38452,-51.77032 z"
         style="fill:#ffffff;fill-opacity:1;stroke:#000000;stroke-width:1px;stroke-linecap:butt;stroke-linejoin:miter;stroke-opacity:1" />
      <path
         style="fill:#ffffff;fill-opacity:1;stroke:#000000;stroke-width:1px;stroke-linecap:butt;stroke-linejoin:miter;stroke-opacity:1"
         d="m 353.31895,430.61329 c 2.64905,-0.005 10.48033,34.47146 10.48033,34.47146 l -3.03046,9.47017 c 0,0 -13.01894,-18.02733 -14.77347,-22.09708 -2.03378,-4.71746 0.12626,-12.37437 1.38895,-15.90991 1.26269,-3.53553 3.2856,-5.92949 5.93465,-5.93464 z"
         id="path3862"
         inkscape:connector-curvature="0"
         sodipodi:nodetypes="zccssz" />
    </g>
    <g
       id="g4701"
       transform="translate(14.571429,37.142857)">
      <path
         sodipodi:nodetypes="cccc"
         inkscape:connector-curvature="0"
         id="path3926"
         d="m 423.51892,416.30528 c 2.49651,3.9259 3.7484,6.82016 0.19126,8.47798 l 17.20478,-2.52539 z"
         style="fill:#ffd42a;fill-opacity:1;stroke:#000000;stroke-opacity:1" />
      <path
         sodipodi:nodetypes="cczccc"
         inkscape:connector-curvature="0"
         id="path3928"
         d="m 412.85413,458.76821 -9.21764,31.0622 c 0,0 10.14361,4.16688 15.21542,4.16688 5.07181,0 15.21542,-4.16688 15.21542,-4.16688 l -10.6066,-31.06219 c -4.53543,-2.56888 -6.13478,-1.93843 -10.6066,-10e-6 z"
         style="fill:#ffffff;fill-opacity:1;stroke:#000000;stroke-width:1px;stroke-linecap:butt;stroke-linejoin:miter;stroke-opacity:1" />
      <path
         sodipodi:nodetypes="zccssz"
         inkscape:connector-curvature="0"
         id="path3930"
         d="m 404.35602,430.79186 c 2.64905,-0.005 10.48033,34.47146 10.48033,34.47146 l -3.03046,9.47017 c 0,0 -13.01894,-18.02733 -14.77347,-22.09708 -2.03378,-4.71746 0.12626,-12.37437 1.38895,-15.90991 1.26269,-3.53553 3.2856,-5.92949 5.93465,-5.93464 z"
         style="fill:#ffffff;fill-opacity:1;stroke:#000000;stroke-width:1px;stroke-linecap:butt;stroke-linejoin:miter;stroke-opacity:1" />
      <path
         sodipodi:nodetypes="zzzcz"
         inkscape:connector-curvature="0"
         id="path3932"
         d="m 405.15172,421.90072 c 3.17607,-11.47942 6.81912,-12.62691 12.81631,-12.62691 5.99719,0 9.53429,1.22469 12.81631,12.62691 3.28202,11.40222 -12.2481,51.77032 -12.2481,51.77032 0,0 -16.56059,-40.2909 -13.38452,-51.77032 z"
         style="fill:#ffffff;fill-opacity:1;stroke:#000000;stroke-width:1px;stroke-linecap:butt;stroke-linejoin:miter;stroke-opacity:1" />
      <path
         style="fill:#ffffff;fill-opacity:1;stroke:#000000;stroke-width:1px;stroke-linecap:butt;stroke-linejoin:miter;stroke-opacity:1"
         d="m 432.54273,430.61329 c -2.64905,-0.005 -10.48033,34.47146 -10.48033,34.47146 l 3.03046,9.47017 c 0,0 13.01894,-18.02733 14.77347,-22.09708 2.03378,-4.71746 -0.12626,-12.37437 -1.38895,-15.90991 -1.26269,-3.53553 -3.2856,-5.92949 -5.93465,-5.93464 z"
         id="path3934"
         inkscape:connector-curvature="0"
         sodipodi:nodetypes="zccssz" />
    </g>
    <g
       id="g4708"
       transform="translate(17.571429,37.142857)">
      <path
         style="fill:#ffd42a;fill-opacity:1;stroke:#000000;stroke-opacity:1"
         d="m 464.84276,416.30528 c -2.49651,3.9259 -3.7484,6.82016 -0.19126,8.47798 l -17.20478,-2.52539 z"
         id="path3938"
         inkscape:connector-curvature="0"
         sodipodi:nodetypes="cccc" />
      <path
         style="fill:#ffffff;fill-opacity:1;stroke:#000000;stroke-width:1px;stroke-linecap:butt;stroke-linejoin:miter;stroke-opacity:1"
         d="m 475.50755,458.76821 9.21764,31.0622 c 0,0 -10.14361,4.16688 -15.21542,4.16688 -5.07181,0 -15.21542,-4.16688 -15.21542,-4.16688 l 10.6066,-31.06219 c 4.53543,-2.56888 6.13478,-1.93843 10.6066,-10e-6 z"
         id="path3940"
         inkscape:connector-curvature="0"
         sodipodi:nodetypes="cczccc" />
      <path
         style="fill:#ffffff;fill-opacity:1;stroke:#000000;stroke-width:1px;stroke-linecap:butt;stroke-linejoin:miter;stroke-opacity:1"
         d="m 484.00566,430.79186 c -2.64905,-0.005 -10.48033,34.47146 -10.48033,34.47146 l 3.03046,9.47017 c 0,0 13.01894,-18.02733 14.77347,-22.09708 2.03378,-4.71746 -0.12626,-12.37437 -1.38895,-15.90991 -1.26269,-3.53553 -3.2856,-5.92949 -5.93465,-5.93464 z"
         id="path3942"
         inkscape:connector-curvature="0"
         sodipodi:nodetypes="zccssz" />
      <path
         style="fill:#ffffff;fill-opacity:1;stroke:#000000;stroke-width:1px;stroke-linecap:butt;stroke-linejoin:miter;stroke-opacity:1"
         d="m 483.20996,421.90072 c -3.17607,-11.47942 -6.81912,-12.62691 -12.81631,-12.62691 -5.99719,0 -9.53429,1.22469 -12.81631,12.62691 -3.28202,11.40222 12.2481,51.77032 12.2481,51.77032 0,0 16.56059,-40.2909 13.38452,-51.77032 z"
         id="path3944"
         inkscape:connector-curvature="0"
         sodipodi:nodetypes="zzzcz" />
      <path
         sodipodi:nodetypes="zccssz"
         inkscape:connector-curvature="0"
         id="path3946"
         d="m 455.81895,430.61329 c 2.64905,-0.005 10.48033,34.47146 10.48033,34.47146 l -3.03046,9.47017 c 0,0 -13.01894,-18.02733 -14.77347,-22.09708 -2.03378,-4.71746 0.12626,-12.37437 1.38895,-15.90991 1.26269,-3.53553 3.2856,-5.92949 5.93465,-5.93464 z"
         style="fill:#ffffff;fill-opacity:1;stroke:#000000;stroke-width:1px;stroke-linecap:butt;stroke-linejoin:miter;stroke-opacity:1" />
    </g>
    <flowRoot
       xml:space="preserve"
       id="flowRoot4622"
       style="font-size:40px;font-style:normal;font-variant:normal;font-weight:normal;font-stretch:normal;text-align:start;line-height:125%;letter-spacing:0px;word-spacing:0px;text-anchor:start;fill:#000000;fill-opacity:1;stroke:none;font-family:Swis721 BdOul BT;-inkscape-font-specification:Swis721 BdOul BT"
       transform="matrix(1.1892573,0,0,1.1892573,-106.88011,2.4370061)"><flowRegion
         id="flowRegion4624"><rect
           id="rect4626"
           width="242.19553"
           height="55.374702"
           x="303.55084"
           y="250.80614"
           style="text-align:start;text-anchor:start" /></flowRegion><flowPara
         id="flowPara4628"
         style="font-style:normal;font-variant:normal;font-weight:normal;font-stretch:normal;text-align:start;letter-spacing:0.03363444px;text-anchor:start;fill:#ffffff;font-family:Arial Black;-inkscape-font-specification:Arial Black">H O R <flowSpan
   style="letter-spacing:2.52258277px;font-family:Arial Black;-inkscape-font-specification:Arial Black"
   id="flowSpan4786">N Í </flowSpan>Ǐ</flowPara></flowRoot>    <flowRoot
       transform="matrix(1.1892573,0,0,1.1892573,-110.74535,253.05801)"
       style="font-size:40px;font-style:normal;font-variant:normal;font-weight:normal;font-stretch:normal;text-align:start;line-height:125%;letter-spacing:0px;word-spacing:0px;text-anchor:start;fill:#000000;fill-opacity:1;stroke:none;font-family:Swis721 BdOul BT;-inkscape-font-specification:Swis721 BdOul BT"
       id="flowRoot4662"
       xml:space="preserve"><flowRegion
         id="flowRegion4664"><rect
           style="text-align:start;text-anchor:start"
           y="250.80614"
           x="303.55084"
           height="55.374702"
           width="242.19553"
           id="rect4666" /></flowRegion><flowPara
         style="font-style:normal;font-variant:normal;font-weight:normal;font-stretch:normal;text-align:start;letter-spacing:0.03363444px;text-anchor:start;fill:#ffffff;font-family:Arial Black;-inkscape-font-specification:Arial Black"
         id="flowPara4668"><flowSpan
   style="letter-spacing:0.42043048px;font-family:Arial Black;-inkscape-font-specification:Arial Black"
   id="flowSpan4792">K O</flowSpan><flowSpan
   style="letter-spacing:0.67268872px;font-family:Arial Black;-inkscape-font-specification:Arial Black"
   id="flowSpan4796"> S O</flowSpan> V Ǐ</flowPara></flowRoot>  </g>
</svg>
