<?xml version="1.0" encoding="UTF-8" standalone="no"?>
<!-- Created with Inkscape (http://www.inkscape.org/) -->

<svg
   xmlns:dc="http://purl.org/dc/elements/1.1/"
   xmlns:cc="http://creativecommons.org/ns#"
   xmlns:rdf="http://www.w3.org/1999/02/22-rdf-syntax-ns#"
   xmlns:svg="http://www.w3.org/2000/svg"
   xmlns="http://www.w3.org/2000/svg"
   xmlns:xlink="http://www.w3.org/1999/xlink"
   xmlns:sodipodi="http://sodipodi.sourceforge.net/DTD/sodipodi-0.dtd"
   xmlns:inkscape="http://www.inkscape.org/namespaces/inkscape"
   width="744.09448819"
   height="1052.3622047"
   id="svg2999"
   version="1.1"
   inkscape:version="0.48.4 r9939"
   sodipodi:docname="New document 1">
  <defs
     id="defs3001" />
  <sodipodi:namedview
     id="base"
     pagecolor="#ffffff"
     bordercolor="#666666"
     borderopacity="1.0"
     inkscape:pageopacity="0.0"
     inkscape:pageshadow="2"
     inkscape:zoom="0.85135656"
     inkscape:cx="-213.931"
     inkscape:cy="466.4526"
     inkscape:document-units="px"
     inkscape:current-layer="layer1"
     showgrid="false"
     inkscape:window-width="2498"
     inkscape:window-height="1418"
     inkscape:window-x="-8"
     inkscape:window-y="-8"
     inkscape:window-maximized="1" />
  <metadata
     id="metadata3004">
    <rdf:RDF>
      <cc:Work
         rdf:about="">
        <dc:format>image/svg+xml</dc:format>
        <dc:type
           rdf:resource="http://purl.org/dc/dcmitype/StillImage" />
        <dc:title></dc:title>
      </cc:Work>
    </rdf:RDF>
  </metadata>
  <g
     inkscape:label="Layer 1"
     inkscape:groupmode="layer"
     id="layer1">
    <rect
       y="166.00595"
       x="35.328815"
       height="562.64429"
       width="679.09149"
       id="rect4523"
       style="fill:#000000;fill-opacity:1;stroke:#ffffff;stroke-width:16.62635803;stroke-linecap:round;stroke-linejoin:round;stroke-miterlimit:4;stroke-opacity:1;stroke-dasharray:none;stroke-dashoffset:0" />
    <g
       id="g4529"
       transform="translate(9.5714286,37.142857)">
      <path
         inkscape:transform-center-y="-0.90524674"
         inkscape:transform-center-x="-14.379857"
         style="fill:#ffd42a;fill-opacity:1;stroke:#000000;stroke-opacity:1"
         d="m 269.69035,328.70501 c 2.49651,3.9259 3.7484,6.82016 0.19126,8.47798 l 17.20478,-2.52539 z"
         id="path4457"
         inkscape:connector-curvature="0"
         sodipodi:nodetypes="cccc" />
      <g
         style="fill:#ffffff;fill-opacity:1;stroke:#000000;stroke-opacity:1"
         id="g4459"
         transform="matrix(1.2555954,0,0,1.0632776,-196.02797,-33.200654)">
        <path
           style="fill:#ffffff;fill-opacity:1;stroke:#000000;stroke-width:0.76173091px;stroke-linecap:butt;stroke-linejoin:miter;stroke-opacity:1"
           d="m 361.1865,373.29835 -11.84402,27.63518 c 11.90544,-0.55616 23.96943,1.04195 35.34338,0.33589 l -12.81633,-27.97106 c -4.56811,-1.47989 -6.17899,-1.1167 -10.68303,-10e-6 z"
           id="path4461"
           inkscape:connector-curvature="0"
           sodipodi:nodetypes="ccccc" />
        <path
           style="fill:#ffffff;fill-opacity:1;stroke:#000000;stroke-width:1;stroke-linecap:butt;stroke-linejoin:miter;stroke-miterlimit:4;stroke-opacity:1;stroke-dasharray:none"
           d="m 358.64881,382.95131 c 2.64905,0.005 10.48033,-34.47146 10.48033,-34.47146 l -3.03046,-9.47017 c 0,0 -13.01894,18.02733 -14.77347,22.09708 -2.03377,4.71746 0.12626,12.37437 1.38896,15.90991 1.26269,3.53553 3.2856,5.92949 5.93464,5.93464 z"
           id="path4463"
           inkscape:connector-curvature="0"
           sodipodi:nodetypes="zccssz" />
        <path
           sodipodi:nodetypes="zccssz"
           inkscape:connector-curvature="0"
           id="path4465"
           d="m 374.04626,381.54185 c -2.64905,0.005 -10.48033,-34.47146 -10.48033,-34.47146 l 3.03046,-9.47017 c 0,0 13.01894,18.02733 14.77347,22.09708 2.03378,4.71746 -0.12626,12.37437 -1.38895,15.90991 -1.26269,3.53553 -3.2856,5.92949 -5.93465,5.93464 z"
           style="fill:#ffffff;fill-opacity:1;stroke:#000000;stroke-width:1;stroke-linecap:butt;stroke-linejoin:miter;stroke-miterlimit:4;stroke-opacity:1;stroke-dasharray:none" />
        <path
           style="fill:#ffffff;fill-opacity:1;stroke:#000000;stroke-width:1;stroke-linecap:butt;stroke-linejoin:miter;stroke-miterlimit:4;stroke-opacity:1;stroke-dasharray:none"
           d="m 353.54457,378.89229 c 3.17607,11.47942 7.81466,17.16141 13.81185,17.16141 5.99719,0 8.53875,-5.75919 11.82077,-17.16141 3.28202,-11.40222 -10.19321,-37.51977 -12.14753,-37.51977 -1.95432,0 -16.66116,26.04035 -13.48509,37.51977 z"
           id="path4467"
           inkscape:connector-curvature="0"
           sodipodi:nodetypes="zzzzz" />
      </g>
      <path
         transform="matrix(1.0210615,0,0,1.0210615,-104.84643,-4.1467638)"
         d="m 373.25138,330.22937 c 0,6.34602 -5.14447,11.49049 -11.49049,11.49049 -6.34601,0 -11.49048,-5.14447 -11.49048,-11.49049 0,-6.34602 5.14447,-11.49049 11.49048,-11.49049 6.34602,0 11.49049,5.14447 11.49049,11.49049 z"
         sodipodi:ry="11.490485"
         sodipodi:rx="11.490485"
         sodipodi:cy="330.22937"
         sodipodi:cx="361.76089"
         id="path4519"
         style="fill:#ffffff;fill-opacity:1;fill-rule:nonzero;stroke:#000000;stroke-width:1;stroke-linecap:round;stroke-linejoin:round;stroke-miterlimit:4;stroke-opacity:1;stroke-dasharray:none;stroke-dashoffset:0"
         sodipodi:type="arc" />
      <path
         inkscape:connector-curvature="0"
         id="path4527"
         d="m 244.58319,385.56679 42.4264,0"
         style="fill:none;stroke:#000000;stroke-width:1px;stroke-linecap:butt;stroke-linejoin:miter;stroke-opacity:1" />
    </g>
    <g
       id="g4539"
       transform="translate(63.331595,37.142857)">
      <path
         sodipodi:nodetypes="cccc"
         inkscape:connector-curvature="0"
         id="path4541"
         d="m 269.70984,328.70501 c 2.49651,3.9259 3.7484,6.82016 0.19126,8.47798 l 17.20478,-2.52539 z"
         style="fill:#ffd42a;fill-opacity:1;stroke:#000000;stroke-opacity:1"
         inkscape:transform-center-x="-14.379853"
         inkscape:transform-center-y="-0.90524674" />
      <g
         transform="matrix(1.2555954,0,0,1.0632776,-196.02797,-33.200654)"
         id="g4543"
         style="fill:#ffffff;fill-opacity:1;stroke:#000000;stroke-opacity:1">
        <path
           sodipodi:nodetypes="ccccc"
           inkscape:connector-curvature="0"
           id="path4545"
           d="m 361.1865,373.29835 -11.84402,27.63518 c 11.90544,-0.55616 23.96943,1.04195 35.34338,0.33589 l -12.81633,-27.97106 c -4.56811,-1.47989 -6.17899,-1.1167 -10.68303,-10e-6 z"
           style="fill:#ffffff;fill-opacity:1;stroke:#000000;stroke-width:0.76173091px;stroke-linecap:butt;stroke-linejoin:miter;stroke-opacity:1" />
        <path
           sodipodi:nodetypes="zccssz"
           inkscape:connector-curvature="0"
           id="path4547"
           d="m 358.64881,382.95131 c 2.64905,0.005 10.48033,-34.47146 10.48033,-34.47146 l -3.03046,-9.47017 c 0,0 -13.01894,18.02733 -14.77347,22.09708 -2.03377,4.71746 0.12626,12.37437 1.38896,15.90991 1.26269,3.53553 3.2856,5.92949 5.93464,5.93464 z"
           style="fill:#ffffff;fill-opacity:1;stroke:#000000;stroke-width:1;stroke-linecap:butt;stroke-linejoin:miter;stroke-miterlimit:4;stroke-opacity:1;stroke-dasharray:none" />
        <path
           style="fill:#ffffff;fill-opacity:1;stroke:#000000;stroke-width:1;stroke-linecap:butt;stroke-linejoin:miter;stroke-miterlimit:4;stroke-opacity:1;stroke-dasharray:none"
           d="m 374.04626,381.54185 c -2.64905,0.005 -10.48033,-34.47146 -10.48033,-34.47146 l 3.03046,-9.47017 c 0,0 13.01894,18.02733 14.77347,22.09708 2.03378,4.71746 -0.12626,12.37437 -1.38895,15.90991 -1.26269,3.53553 -3.2856,5.92949 -5.93465,5.93464 z"
           id="path4549"
           inkscape:connector-curvature="0"
           sodipodi:nodetypes="zccssz" />
        <path
           sodipodi:nodetypes="zzzzz"
           inkscape:connector-curvature="0"
           id="path4551"
           d="m 353.54457,378.89229 c 3.17607,11.47942 7.81466,17.16141 13.81185,17.16141 5.99719,0 8.53875,-5.75919 11.82077,-17.16141 3.28202,-11.40222 -10.19321,-37.51977 -12.14753,-37.51977 -1.95432,0 -16.66116,26.04035 -13.48509,37.51977 z"
           style="fill:#ffffff;fill-opacity:1;stroke:#000000;stroke-width:1;stroke-linecap:butt;stroke-linejoin:miter;stroke-miterlimit:4;stroke-opacity:1;stroke-dasharray:none" />
      </g>
      <path
         sodipodi:type="arc"
         style="fill:#ffffff;fill-opacity:1;fill-rule:nonzero;stroke:#000000;stroke-width:1;stroke-linecap:round;stroke-linejoin:round;stroke-miterlimit:4;stroke-opacity:1;stroke-dasharray:none;stroke-dashoffset:0"
         id="path4553"
         sodipodi:cx="361.76089"
         sodipodi:cy="330.22937"
         sodipodi:rx="11.490485"
         sodipodi:ry="11.490485"
         d="m 373.25138,330.22937 c 0,6.34602 -5.14447,11.49049 -11.49049,11.49049 -6.34601,0 -11.49048,-5.14447 -11.49048,-11.49049 0,-6.34602 5.14447,-11.49049 11.49048,-11.49049 6.34602,0 11.49049,5.14447 11.49049,11.49049 z"
         transform="matrix(-1.0210615,0,0,1.0210615,633.86346,-4.1467638)" />
      <path
         style="fill:none;stroke:#000000;stroke-width:1px;stroke-linecap:butt;stroke-linejoin:miter;stroke-opacity:1"
         d="m 244.58319,385.56679 42.4264,0"
         id="path4555"
         inkscape:connector-curvature="0" />
    </g>
    <g
       transform="translate(116.35445,37.142857)"
       id="g4568">
      <path
         inkscape:transform-center-y="-0.093732196"
         inkscape:transform-center-x="-13.121794"
         style="fill:#ffd42a;fill-opacity:1;stroke:#000000;stroke-opacity:1"
         d="m 269.71073,328.70501 c 2.49651,3.9259 3.7484,6.82016 0.19126,8.47798 l 17.20478,-2.52539 z"
         id="path4570"
         inkscape:connector-curvature="0"
         sodipodi:nodetypes="cccc" />
      <g
         style="fill:#ffffff;fill-opacity:1;stroke:#000000;stroke-opacity:1"
         id="g4572"
         transform="matrix(1.2555954,0,0,1.0632776,-196.02797,-33.200654)">
        <path
           style="fill:#ffffff;fill-opacity:1;stroke:#000000;stroke-width:0.76173091px;stroke-linecap:butt;stroke-linejoin:miter;stroke-opacity:1"
           d="m 361.1865,373.29835 -11.84402,27.63518 c 11.90544,-0.55616 23.96943,1.04195 35.34338,0.33589 l -12.81633,-27.97106 c -4.56811,-1.47989 -6.17899,-1.1167 -10.68303,-10e-6 z"
           id="path4574"
           inkscape:connector-curvature="0"
           sodipodi:nodetypes="ccccc" />
        <path
           style="fill:#ffffff;fill-opacity:1;stroke:#000000;stroke-width:1;stroke-linecap:butt;stroke-linejoin:miter;stroke-miterlimit:4;stroke-opacity:1;stroke-dasharray:none"
           d="m 358.64881,382.95131 c 2.64905,0.005 10.48033,-34.47146 10.48033,-34.47146 l -3.03046,-9.47017 c 0,0 -13.01894,18.02733 -14.77347,22.09708 -2.03377,4.71746 0.12626,12.37437 1.38896,15.90991 1.26269,3.53553 3.2856,5.92949 5.93464,5.93464 z"
           id="path4576"
           inkscape:connector-curvature="0"
           sodipodi:nodetypes="zccssz" />
        <path
           sodipodi:nodetypes="zccssz"
           inkscape:connector-curvature="0"
           id="path4578"
           d="m 374.04626,381.54185 c -2.64905,0.005 -10.48033,-34.47146 -10.48033,-34.47146 l 3.03046,-9.47017 c 0,0 13.01894,18.02733 14.77347,22.09708 2.03378,4.71746 -0.12626,12.37437 -1.38895,15.90991 -1.26269,3.53553 -3.2856,5.92949 -5.93465,5.93464 z"
           style="fill:#ffffff;fill-opacity:1;stroke:#000000;stroke-width:1;stroke-linecap:butt;stroke-linejoin:miter;stroke-miterlimit:4;stroke-opacity:1;stroke-dasharray:none" />
        <path
           style="fill:#ffffff;fill-opacity:1;stroke:#000000;stroke-width:1;stroke-linecap:butt;stroke-linejoin:miter;stroke-miterlimit:4;stroke-opacity:1;stroke-dasharray:none"
           d="m 353.54457,378.89229 c 3.17607,11.47942 7.81466,17.16141 13.81185,17.16141 5.99719,0 8.53875,-5.75919 11.82077,-17.16141 3.28202,-11.40222 -10.19321,-37.51977 -12.14753,-37.51977 -1.95432,0 -16.66116,26.04035 -13.48509,37.51977 z"
           id="path4580"
           inkscape:connector-curvature="0"
           sodipodi:nodetypes="zzzzz" />
      </g>
      <path
         transform="matrix(-1.0210615,0,0,1.0210615,634.11689,-4.1467638)"
         d="m 373.25138,330.22937 c 0,6.34602 -5.14447,11.49049 -11.49049,11.49049 -6.34601,0 -11.49048,-5.14447 -11.49048,-11.49049 0,-6.34602 5.14447,-11.49049 11.49048,-11.49049 6.34602,0 11.49049,5.14447 11.49049,11.49049 z"
         sodipodi:ry="11.490485"
         sodipodi:rx="11.490485"
         sodipodi:cy="330.22937"
         sodipodi:cx="361.76089"
         id="path4582"
         style="fill:#ffffff;fill-opacity:1;fill-rule:nonzero;stroke:#000000;stroke-width:1;stroke-linecap:round;stroke-linejoin:round;stroke-miterlimit:4;stroke-opacity:1;stroke-dasharray:none;stroke-dashoffset:0"
         sodipodi:type="arc"
         inkscape:transform-center-x="-0.73288414" />
      <path
         inkscape:connector-curvature="0"
         id="path4584"
         d="m 244.58319,385.56679 42.4264,0"
         style="fill:none;stroke:#000000;stroke-width:1px;stroke-linecap:butt;stroke-linejoin:miter;stroke-opacity:1" />
    </g>
    <g
       id="g4586"
       transform="translate(168.61969,37.142857)">
      <path
         sodipodi:nodetypes="cccc"
         inkscape:connector-curvature="0"
         id="path4588"
         d="m 259.58011,328.70501 c -2.49651,3.9259 -3.7484,6.82016 -0.19126,8.47798 l -17.20478,-2.52539 z"
         style="fill:#ffd42a;fill-opacity:1;stroke:#000000;stroke-opacity:1"
         inkscape:transform-center-x="13.753138"
         inkscape:transform-center-y="-0.093732196" />
      <g
         transform="matrix(1.2555954,0,0,1.0632776,-196.02797,-33.200654)"
         id="g4590"
         style="fill:#ffffff;fill-opacity:1;stroke:#000000;stroke-opacity:1">
        <path
           sodipodi:nodetypes="ccccc"
           inkscape:connector-curvature="0"
           id="path4592"
           d="m 361.1865,373.29835 -11.84402,27.63518 c 11.90544,-0.55616 23.96943,1.04195 35.34338,0.33589 l -12.81633,-27.97106 c -4.56811,-1.47989 -6.17899,-1.1167 -10.68303,-10e-6 z"
           style="fill:#ffffff;fill-opacity:1;stroke:#000000;stroke-width:0.76173091px;stroke-linecap:butt;stroke-linejoin:miter;stroke-opacity:1" />
        <path
           sodipodi:nodetypes="zccssz"
           inkscape:connector-curvature="0"
           id="path4594"
           d="m 358.64881,382.95131 c 2.64905,0.005 10.48033,-34.47146 10.48033,-34.47146 l -3.03046,-9.47017 c 0,0 -13.01894,18.02733 -14.77347,22.09708 -2.03377,4.71746 0.12626,12.37437 1.38896,15.90991 1.26269,3.53553 3.2856,5.92949 5.93464,5.93464 z"
           style="fill:#ffffff;fill-opacity:1;stroke:#000000;stroke-width:1;stroke-linecap:butt;stroke-linejoin:miter;stroke-miterlimit:4;stroke-opacity:1;stroke-dasharray:none" />
        <path
           style="fill:#ffffff;fill-opacity:1;stroke:#000000;stroke-width:1;stroke-linecap:butt;stroke-linejoin:miter;stroke-miterlimit:4;stroke-opacity:1;stroke-dasharray:none"
           d="m 374.04626,381.54185 c -2.64905,0.005 -10.48033,-34.47146 -10.48033,-34.47146 l 3.03046,-9.47017 c 0,0 13.01894,18.02733 14.77347,22.09708 2.03378,4.71746 -0.12626,12.37437 -1.38895,15.90991 -1.26269,3.53553 -3.2856,5.92949 -5.93465,5.93464 z"
           id="path4596"
           inkscape:connector-curvature="0"
           sodipodi:nodetypes="zccssz" />
        <path
           sodipodi:nodetypes="zzzzz"
           inkscape:connector-curvature="0"
           id="path4598"
           d="m 353.54457,378.89229 c 3.17607,11.47942 7.81466,17.16141 13.81185,17.16141 5.99719,0 8.53875,-5.75919 11.82077,-17.16141 3.28202,-11.40222 -10.19321,-37.51977 -12.14753,-37.51977 -1.95432,0 -16.66116,26.04035 -13.48509,37.51977 z"
           style="fill:#ffffff;fill-opacity:1;stroke:#000000;stroke-width:1;stroke-linecap:butt;stroke-linejoin:miter;stroke-miterlimit:4;stroke-opacity:1;stroke-dasharray:none" />
      </g>
      <path
         sodipodi:type="arc"
         style="fill:#ffffff;fill-opacity:1;fill-rule:nonzero;stroke:#000000;stroke-width:1;stroke-linecap:round;stroke-linejoin:round;stroke-miterlimit:4;stroke-opacity:1;stroke-dasharray:none;stroke-dashoffset:0"
         id="path4600"
         sodipodi:cx="361.76089"
         sodipodi:cy="330.22937"
         sodipodi:rx="11.490485"
         sodipodi:ry="11.490485"
         d="m 373.25138,330.22937 c 0,6.34602 -5.14447,11.49049 -11.49049,11.49049 -6.34601,0 -11.49048,-5.14447 -11.49048,-11.49049 0,-6.34602 5.14447,-11.49049 11.49048,-11.49049 6.34602,0 11.49049,5.14447 11.49049,11.49049 z"
         transform="matrix(-1.0210615,0,0,1.0210615,634.11689,-4.1467638)"
         inkscape:transform-center-x="-0.10153948" />
      <path
         style="fill:none;stroke:#000000;stroke-width:1px;stroke-linecap:butt;stroke-linejoin:miter;stroke-opacity:1"
         d="m 244.58319,385.56679 42.4264,0"
         id="path4602"
         inkscape:connector-curvature="0" />
    </g>
    <g
       transform="translate(221.13747,37.142857)"
       id="g4604">
      <path
         inkscape:transform-center-y="-0.093732196"
         inkscape:transform-center-x="13.248065"
         style="fill:#ffd42a;fill-opacity:1;stroke:#000000;stroke-opacity:1"
         d="m 259.59026,328.70501 c -2.49651,3.9259 -3.7484,6.82016 -0.19126,8.47798 l -17.20478,-2.52539 z"
         id="path4606"
         inkscape:connector-curvature="0"
         sodipodi:nodetypes="cccc" />
      <g
         style="fill:#ffffff;fill-opacity:1;stroke:#000000;stroke-opacity:1"
         id="g4608"
         transform="matrix(1.2555954,0,0,1.0632776,-196.02797,-33.200654)">
        <path
           style="fill:#ffffff;fill-opacity:1;stroke:#000000;stroke-width:0.76173091px;stroke-linecap:butt;stroke-linejoin:miter;stroke-opacity:1"
           d="m 361.1865,373.29835 -11.84402,27.63518 c 11.90544,-0.55616 23.96943,1.04195 35.34338,0.33589 l -12.81633,-27.97106 c -4.56811,-1.47989 -6.17899,-1.1167 -10.68303,-10e-6 z"
           id="path4610"
           inkscape:connector-curvature="0"
           sodipodi:nodetypes="ccccc" />
        <path
           style="fill:#ffffff;fill-opacity:1;stroke:#000000;stroke-width:1;stroke-linecap:butt;stroke-linejoin:miter;stroke-miterlimit:4;stroke-opacity:1;stroke-dasharray:none"
           d="m 358.64881,382.95131 c 2.64905,0.005 10.48033,-34.47146 10.48033,-34.47146 l -3.03046,-9.47017 c 0,0 -13.01894,18.02733 -14.77347,22.09708 -2.03377,4.71746 0.12626,12.37437 1.38896,15.90991 1.26269,3.53553 3.2856,5.92949 5.93464,5.93464 z"
           id="path4612"
           inkscape:connector-curvature="0"
           sodipodi:nodetypes="zccssz" />
        <path
           sodipodi:nodetypes="zccssz"
           inkscape:connector-curvature="0"
           id="path4614"
           d="m 374.04626,381.54185 c -2.64905,0.005 -10.48033,-34.47146 -10.48033,-34.47146 l 3.03046,-9.47017 c 0,0 13.01894,18.02733 14.77347,22.09708 2.03378,4.71746 -0.12626,12.37437 -1.38895,15.90991 -1.26269,3.53553 -3.2856,5.92949 -5.93465,5.93464 z"
           style="fill:#ffffff;fill-opacity:1;stroke:#000000;stroke-width:1;stroke-linecap:butt;stroke-linejoin:miter;stroke-miterlimit:4;stroke-opacity:1;stroke-dasharray:none" />
        <path
           style="fill:#ffffff;fill-opacity:1;stroke:#000000;stroke-width:1;stroke-linecap:butt;stroke-linejoin:miter;stroke-miterlimit:4;stroke-opacity:1;stroke-dasharray:none"
           d="m 353.54457,378.89229 c 3.17607,11.47942 7.81466,17.16141 13.81185,17.16141 5.99719,0 8.53875,-5.75919 11.82077,-17.16141 3.28202,-11.40222 -10.19321,-37.51977 -12.14753,-37.51977 -1.95432,0 -16.66116,26.04035 -13.48509,37.51977 z"
           id="path4616"
           inkscape:connector-curvature="0"
           sodipodi:nodetypes="zzzzz" />
      </g>
      <path
         transform="matrix(-1.0210615,0,0,1.0210615,634.12704,-4.1467638)"
         d="m 373.25138,330.22937 c 0,6.34602 -5.14447,11.49049 -11.49049,11.49049 -6.34601,0 -11.49048,-5.14447 -11.49048,-11.49049 0,-6.34602 5.14447,-11.49049 11.49048,-11.49049 6.34602,0 11.49049,5.14447 11.49049,11.49049 z"
         sodipodi:ry="11.490485"
         sodipodi:rx="11.490485"
         sodipodi:cy="330.22937"
         sodipodi:cx="361.76089"
         id="path4618"
         style="fill:#ffffff;fill-opacity:1;fill-rule:nonzero;stroke:#000000;stroke-width:1;stroke-linecap:round;stroke-linejoin:round;stroke-miterlimit:4;stroke-opacity:1;stroke-dasharray:none;stroke-dashoffset:0"
         sodipodi:type="arc"
         inkscape:transform-center-x="-0.60661321" />
      <path
         inkscape:connector-curvature="0"
         id="path4620"
         d="m 244.58319,385.56679 42.4264,0"
         style="fill:none;stroke:#000000;stroke-width:1px;stroke-linecap:butt;stroke-linejoin:miter;stroke-opacity:1" />
    </g>
    <rect
       style="fill:#000000;fill-opacity:1;stroke:#ffffff;stroke-width:2.01253676;stroke-linecap:round;stroke-linejoin:round;stroke-miterlimit:4;stroke-opacity:1;stroke-dasharray:none;stroke-dashoffset:0"
       id="rect3960"
       width="278.91602"
       height="80.286415"
       x="238.50627"
       y="424.21234" />
    <g
       id="g4687"
       transform="translate(5.5714286,37.142857)">
      <path
         sodipodi:nodetypes="cccc"
         inkscape:connector-curvature="0"
         id="path3798"
         d="m 269.76892,416.30528 c 2.49651,3.9259 3.7484,6.82016 0.19126,8.47798 l 17.20478,-2.52539 z"
         style="fill:#ffdd55;fill-opacity:1;stroke:#000000;stroke-opacity:1" />
      <path
         sodipodi:nodetypes="cczccc"
         inkscape:connector-curvature="0"
         id="path3794"
         d="m 259.10413,458.76821 -9.21764,31.0622 c 0,0 10.14361,4.16688 15.21542,4.16688 5.07181,0 15.21542,-4.16688 15.21542,-4.16688 l -10.6066,-31.06219 c -4.53543,-2.56888 -6.13478,-1.93843 -10.6066,-10e-6 z"
         style="fill:#ffffff;fill-opacity:1;stroke:#000000;stroke-width:1px;stroke-linecap:butt;stroke-linejoin:miter;stroke-opacity:1" />
      <path
         sodipodi:nodetypes="zccssz"
         inkscape:connector-curvature="0"
         id="path3792"
         d="m 250.60602,430.79186 c 2.64905,-0.005 10.48033,34.47146 10.48033,34.47146 l -3.03046,9.47017 c 0,0 -13.01894,-18.02733 -14.77347,-22.09708 -2.03378,-4.71746 0.12626,-12.37437 1.38895,-15.90991 1.26269,-3.53553 3.2856,-5.92949 5.93465,-5.93464 z"
         style="fill:#ffffff;fill-opacity:1;stroke:#000000;stroke-width:1px;stroke-linecap:butt;stroke-linejoin:miter;stroke-opacity:1" />
      <path
         sodipodi:nodetypes="zzzcz"
         inkscape:connector-curvature="0"
         id="path3022"
         d="m 251.40172,421.90072 c 3.17607,-11.47942 6.81912,-12.62691 12.81631,-12.62691 5.99719,0 9.53429,1.22469 12.81631,12.62691 3.28202,11.40222 -12.2481,51.77032 -12.2481,51.77032 0,0 -16.56059,-40.2909 -13.38452,-51.77032 z"
         style="fill:#ffffff;fill-opacity:1;stroke:#000000;stroke-width:1px;stroke-linecap:butt;stroke-linejoin:miter;stroke-opacity:1" />
      <path
         style="fill:#ffffff;fill-opacity:1;stroke:#000000;stroke-width:1px;stroke-linecap:butt;stroke-linejoin:miter;stroke-opacity:1"
         d="m 278.79273,430.61329 c -2.64905,-0.005 -10.48033,34.47146 -10.48033,34.47146 l 3.03046,9.47017 c 0,0 13.01894,-18.02733 14.77347,-22.09708 2.03378,-4.71746 -0.12626,-12.37437 -1.38895,-15.90991 -1.26269,-3.53553 -3.2856,-5.92949 -5.93465,-5.93464 z"
         id="path3796"
         inkscape:connector-curvature="0"
         sodipodi:nodetypes="zccssz" />
    </g>
    <g
       id="g4680"
       transform="translate(10.571429,37.142857)">
      <path
         style="fill:#ffd42a;fill-opacity:1;stroke:#000000;stroke-opacity:1"
         d="m 321.01892,416.30528 c 2.49651,3.9259 3.7484,6.82016 0.19126,8.47798 l 17.20478,-2.52539 z"
         id="path3818"
         inkscape:connector-curvature="0"
         sodipodi:nodetypes="cccc" />
      <path
         style="fill:#ffffff;fill-opacity:1;stroke:#000000;stroke-width:1px;stroke-linecap:butt;stroke-linejoin:miter;stroke-opacity:1"
         d="m 310.35413,458.76821 -9.21764,31.0622 c 0,0 10.14361,4.16688 15.21542,4.16688 5.07181,0 15.21542,-4.16688 15.21542,-4.16688 l -10.6066,-31.06219 c -4.53543,-2.56888 -6.13478,-1.93843 -10.6066,-10e-6 z"
         id="path3820"
         inkscape:connector-curvature="0"
         sodipodi:nodetypes="cczccc" />
      <path
         style="fill:#ffffff;fill-opacity:1;stroke:#000000;stroke-width:1px;stroke-linecap:butt;stroke-linejoin:miter;stroke-opacity:1"
         d="m 301.85602,430.79186 c 2.64905,-0.005 10.48033,34.47146 10.48033,34.47146 l -3.03046,9.47017 c 0,0 -13.01894,-18.02733 -14.77347,-22.09708 -2.03378,-4.71746 0.12626,-12.37437 1.38895,-15.90991 1.26269,-3.53553 3.2856,-5.92949 5.93465,-5.93464 z"
         id="path3822"
         inkscape:connector-curvature="0"
         sodipodi:nodetypes="zccssz" />
      <path
         style="fill:#ffffff;fill-opacity:1;stroke:#000000;stroke-width:1px;stroke-linecap:butt;stroke-linejoin:miter;stroke-opacity:1"
         d="m 302.65172,421.90072 c 3.17607,-11.47942 6.81912,-12.62691 12.81631,-12.62691 5.99719,0 9.53429,1.22469 12.81631,12.62691 3.28202,11.40222 -12.2481,51.77032 -12.2481,51.77032 0,0 -16.56059,-40.2909 -13.38452,-51.77032 z"
         id="path3824"
         inkscape:connector-curvature="0"
         sodipodi:nodetypes="zzzcz" />
      <path
         sodipodi:nodetypes="zccssz"
         inkscape:connector-curvature="0"
         id="path3826"
         d="m 330.04273,430.61329 c -2.64905,-0.005 -10.48033,34.47146 -10.48033,34.47146 l 3.03046,9.47017 c 0,0 13.01894,-18.02733 14.77347,-22.09708 2.03378,-4.71746 -0.12626,-12.37437 -1.38895,-15.90991 -1.26269,-3.53553 -3.2856,-5.92949 -5.93465,-5.93464 z"
         style="fill:#ffffff;fill-opacity:1;stroke:#000000;stroke-width:1px;stroke-linecap:butt;stroke-linejoin:miter;stroke-opacity:1" />
    </g>
    <g
       id="g4694"
       transform="translate(12.571429,37.142857)">
      <path
         sodipodi:nodetypes="cccc"
         inkscape:connector-curvature="0"
         id="path3854"
         d="m 362.34276,416.30528 c -2.49651,3.9259 -3.7484,6.82016 -0.19126,8.47798 l -17.20478,-2.52539 z"
         style="fill:#ffd42a;fill-opacity:1;stroke:#000000;stroke-opacity:1" />
      <path
         sodipodi:nodetypes="cczccc"
         inkscape:connector-curvature="0"
         id="path3856"
         d="m 373.00755,458.76821 9.21764,31.0622 c 0,0 -10.14361,4.16688 -15.21542,4.16688 -5.07181,0 -15.21542,-4.16688 -15.21542,-4.16688 l 10.6066,-31.06219 c 4.53543,-2.56888 6.13478,-1.93843 10.6066,-10e-6 z"
         style="fill:#ffffff;fill-opacity:1;stroke:#000000;stroke-width:1px;stroke-linecap:butt;stroke-linejoin:miter;stroke-opacity:1" />
      <path
         sodipodi:nodetypes="zccssz"
         inkscape:connector-curvature="0"
         id="path3858"
         d="m 381.50566,430.79186 c -2.64905,-0.005 -10.48033,34.47146 -10.48033,34.47146 l 3.03046,9.47017 c 0,0 13.01894,-18.02733 14.77347,-22.09708 2.03378,-4.71746 -0.12626,-12.37437 -1.38895,-15.90991 -1.26269,-3.53553 -3.2856,-5.92949 -5.93465,-5.93464 z"
         style="fill:#ffffff;fill-opacity:1;stroke:#000000;stroke-width:1px;stroke-linecap:butt;stroke-linejoin:miter;stroke-opacity:1" />
      <path
         sodipodi:nodetypes="zzzcz"
         inkscape:connector-curvature="0"
         id="path3860"
         d="m 380.70996,421.90072 c -3.17607,-11.47942 -6.81912,-12.62691 -12.81631,-12.62691 -5.99719,0 -9.53429,1.22469 -12.81631,12.62691 -3.28202,11.40222 12.2481,51.77032 12.2481,51.77032 0,0 16.56059,-40.2909 13.38452,-51.77032 z"
         style="fill:#ffffff;fill-opacity:1;stroke:#000000;stroke-width:1px;stroke-linecap:butt;stroke-linejoin:miter;stroke-opacity:1" />
      <path
         style="fill:#ffffff;fill-opacity:1;stroke:#000000;stroke-width:1px;stroke-linecap:butt;stroke-linejoin:miter;stroke-opacity:1"
         d="m 353.31895,430.61329 c 2.64905,-0.005 10.48033,34.47146 10.48033,34.47146 l -3.03046,9.47017 c 0,0 -13.01894,-18.02733 -14.77347,-22.09708 -2.03378,-4.71746 0.12626,-12.37437 1.38895,-15.90991 1.26269,-3.53553 3.2856,-5.92949 5.93465,-5.93464 z"
         id="path3862"
         inkscape:connector-curvature="0"
         sodipodi:nodetypes="zccssz" />
    </g>
    <g
       id="g4701"
       transform="translate(14.571429,37.142857)">
      <path
         sodipodi:nodetypes="cccc"
         inkscape:connector-curvature="0"
         id="path3926"
         d="m 423.51892,416.30528 c 2.49651,3.9259 3.7484,6.82016 0.19126,8.47798 l 17.20478,-2.52539 z"
         style="fill:#ffd42a;fill-opacity:1;stroke:#000000;stroke-opacity:1" />
      <path
         sodipodi:nodetypes="cczccc"
         inkscape:connector-curvature="0"
         id="path3928"
         d="m 412.85413,458.76821 -9.21764,31.0622 c 0,0 10.14361,4.16688 15.21542,4.16688 5.07181,0 15.21542,-4.16688 15.21542,-4.16688 l -10.6066,-31.06219 c -4.53543,-2.56888 -6.13478,-1.93843 -10.6066,-10e-6 z"
         style="fill:#ffffff;fill-opacity:1;stroke:#000000;stroke-width:1px;stroke-linecap:butt;stroke-linejoin:miter;stroke-opacity:1" />
      <path
         sodipodi:nodetypes="zccssz"
         inkscape:connector-curvature="0"
         id="path3930"
         d="m 404.35602,430.79186 c 2.64905,-0.005 10.48033,34.47146 10.48033,34.47146 l -3.03046,9.47017 c 0,0 -13.01894,-18.02733 -14.77347,-22.09708 -2.03378,-4.71746 0.12626,-12.37437 1.38895,-15.90991 1.26269,-3.53553 3.2856,-5.92949 5.93465,-5.93464 z"
         style="fill:#ffffff;fill-opacity:1;stroke:#000000;stroke-width:1px;stroke-linecap:butt;stroke-linejoin:miter;stroke-opacity:1" />
      <path
         sodipodi:nodetypes="zzzcz"
         inkscape:connector-curvature="0"
         id="path3932"
         d="m 405.15172,421.90072 c 3.17607,-11.47942 6.81912,-12.62691 12.81631,-12.62691 5.99719,0 9.53429,1.22469 12.81631,12.62691 3.28202,11.40222 -12.2481,51.77032 -12.2481,51.77032 0,0 -16.56059,-40.2909 -13.38452,-51.77032 z"
         style="fill:#ffffff;fill-opacity:1;stroke:#000000;stroke-width:1px;stroke-linecap:butt;stroke-linejoin:miter;stroke-opacity:1" />
      <path
         style="fill:#ffffff;fill-opacity:1;stroke:#000000;stroke-width:1px;stroke-linecap:butt;stroke-linejoin:miter;stroke-opacity:1"
         d="m 432.54273,430.61329 c -2.64905,-0.005 -10.48033,34.47146 -10.48033,34.47146 l 3.03046,9.47017 c 0,0 13.01894,-18.02733 14.77347,-22.09708 2.03378,-4.71746 -0.12626,-12.37437 -1.38895,-15.90991 -1.26269,-3.53553 -3.2856,-5.92949 -5.93465,-5.93464 z"
         id="path3934"
         inkscape:connector-curvature="0"
         sodipodi:nodetypes="zccssz" />
    </g>
    <g
       id="g4708"
       transform="translate(17.571429,37.142857)">
      <path
         style="fill:#ffd42a;fill-opacity:1;stroke:#000000;stroke-opacity:1"
         d="m 464.84276,416.30528 c -2.49651,3.9259 -3.7484,6.82016 -0.19126,8.47798 l -17.20478,-2.52539 z"
         id="path3938"
         inkscape:connector-curvature="0"
         sodipodi:nodetypes="cccc" />
      <path
         style="fill:#ffffff;fill-opacity:1;stroke:#000000;stroke-width:1px;stroke-linecap:butt;stroke-linejoin:miter;stroke-opacity:1"
         d="m 475.50755,458.76821 9.21764,31.0622 c 0,0 -10.14361,4.16688 -15.21542,4.16688 -5.07181,0 -15.21542,-4.16688 -15.21542,-4.16688 l 10.6066,-31.06219 c 4.53543,-2.56888 6.13478,-1.93843 10.6066,-10e-6 z"
         id="path3940"
         inkscape:connector-curvature="0"
         sodipodi:nodetypes="cczccc" />
      <path
         style="fill:#ffffff;fill-opacity:1;stroke:#000000;stroke-width:1px;stroke-linecap:butt;stroke-linejoin:miter;stroke-opacity:1"
         d="m 484.00566,430.79186 c -2.64905,-0.005 -10.48033,34.47146 -10.48033,34.47146 l 3.03046,9.47017 c 0,0 13.01894,-18.02733 14.77347,-22.09708 2.03378,-4.71746 -0.12626,-12.37437 -1.38895,-15.90991 -1.26269,-3.53553 -3.2856,-5.92949 -5.93465,-5.93464 z"
         id="path3942"
         inkscape:connector-curvature="0"
         sodipodi:nodetypes="zccssz" />
      <path
         style="fill:#ffffff;fill-opacity:1;stroke:#000000;stroke-width:1px;stroke-linecap:butt;stroke-linejoin:miter;stroke-opacity:1"
         d="m 483.20996,421.90072 c -3.17607,-11.47942 -6.81912,-12.62691 -12.81631,-12.62691 -5.99719,0 -9.53429,1.22469 -12.81631,12.62691 -3.28202,11.40222 12.2481,51.77032 12.2481,51.77032 0,0 16.56059,-40.2909 13.38452,-51.77032 z"
         id="path3944"
         inkscape:connector-curvature="0"
         sodipodi:nodetypes="zzzcz" />
      <path
         sodipodi:nodetypes="zccssz"
         inkscape:connector-curvature="0"
         id="path3946"
         d="m 455.81895,430.61329 c 2.64905,-0.005 10.48033,34.47146 10.48033,34.47146 l -3.03046,9.47017 c 0,0 -13.01894,-18.02733 -14.77347,-22.09708 -2.03378,-4.71746 0.12626,-12.37437 1.38895,-15.90991 1.26269,-3.53553 3.2856,-5.92949 5.93465,-5.93464 z"
         style="fill:#ffffff;fill-opacity:1;stroke:#000000;stroke-width:1px;stroke-linecap:butt;stroke-linejoin:miter;stroke-opacity:1" />
    </g>
    <flowRoot
       xml:space="preserve"
       id="flowRoot4622"
       style="font-size:40px;font-style:normal;font-variant:normal;font-weight:normal;font-stretch:normal;text-align:start;line-height:125%;letter-spacing:0px;word-spacing:0px;text-anchor:start;fill:#000000;fill-opacity:1;stroke:none;font-family:Swis721 BdOul BT;-inkscape-font-specification:Swis721 BdOul BT"
       transform="matrix(1.1892573,0,0,1.1892573,-107.46741,15.357562)"><flowRegion
         id="flowRegion4624"><rect
           id="rect4626"
           width="242.19553"
           height="55.374702"
           x="303.55084"
           y="250.80614"
           style="text-align:start;text-anchor:start" /></flowRegion><flowPara
         id="flowPara4628"
         style="font-style:normal;font-variant:normal;font-weight:normal;font-stretch:normal;text-align:start;letter-spacing:0.03363444px;text-anchor:start;fill:#ffffff;font-family:Swis721 Blk BT;-inkscape-font-specification:Swis721 Blk BT">H O R <flowSpan
   style="letter-spacing:2.52258279px"
   id="flowSpan4786">N Í </flowSpan>Ǐ</flowPara></flowRoot>    <flowRoot
       transform="matrix(1.1892573,0,0,1.1892573,-107.22156,237.20096)"
       style="font-size:40px;font-style:normal;font-variant:normal;font-weight:normal;font-stretch:normal;text-align:start;line-height:125%;letter-spacing:0px;word-spacing:0px;text-anchor:start;fill:#000000;fill-opacity:1;stroke:none;font-family:Swis721 BdOul BT;-inkscape-font-specification:Swis721 BdOul BT"
       id="flowRoot4662"
       xml:space="preserve"><flowRegion
         id="flowRegion4664"><rect
           style="text-align:start;text-anchor:start"
           y="250.80614"
           x="303.55084"
           height="55.374702"
           width="242.19553"
           id="rect4666" /></flowRegion><flowPara
         style="font-style:normal;font-variant:normal;font-weight:normal;font-stretch:normal;text-align:start;letter-spacing:0.03363444px;text-anchor:start;fill:#ffffff;font-family:Swis721 Blk BT;-inkscape-font-specification:Swis721 Blk BT"
         id="flowPara4668"><flowSpan
   style="letter-spacing:0.42043048px"
   id="flowSpan4792">K O</flowSpan><flowSpan
   style="letter-spacing:0.67268872px"
   id="flowSpan4796"> S O</flowSpan> V Ǐ</flowPara></flowRoot>    <path
       style="fill:none;stroke:#000000;stroke-width:1px;stroke-linecap:butt;stroke-linejoin:miter;stroke-opacity:1"
       d="m 130.2379,153.09364 c 0,0 97.31136,-51.51779 238.396,-51.51779 141.08464,0 238.396,51.51779 238.396,51.51779"
       id="path4725"
       inkscape:connector-curvature="0"
       sodipodi:nodetypes="czc" />
    <path
       sodipodi:nodetypes="czc"
       inkscape:connector-curvature="0"
       id="path4757"
       d="m 134.76871,738.19964 c 0,0 97.31136,51.51778 238.396,51.51778 141.08464,0 238.396,-51.51778 238.396,-51.51778"
       style="fill:none;stroke:#000000;stroke-width:1px;stroke-linecap:butt;stroke-linejoin:miter;stroke-opacity:1" />
    <g
       id="g4820"
       transform="translate(2,0)">
      <text
         transform="translate(7.8361165,164.69548)"
         sodipodi:linespacing="125%"
         id="text4727"
         style="font-size:40px;font-style:normal;font-variant:normal;font-weight:normal;font-stretch:normal;text-align:center;line-height:125%;letter-spacing:0px;word-spacing:0px;text-anchor:middle;fill:#ffffff;fill-opacity:1;stroke:none;font-family:Swis721 BdOul BT;-inkscape-font-specification:Swis721 BdOul BT"
         xml:space="preserve"><textPath
           id="textPath4733"
           startOffset="50%"
           xlink:href="#path4725"><tspan
   style="fill:#ffffff"
   id="tspan4729"><tspan
     x="220.35156"
     y="224.92494"
     style="font-size:72px;fill:#ffffff;font-family:Algerian;-inkscape-font-specification:Algerian"
     id="tspan4731">KUMPÁNI</tspan></tspan></textPath></text>
      <text
         transform="translate(3.9390851,-115.97681)"
         sodipodi:linespacing="125%"
         id="text4775"
         style="font-size:40px;font-style:normal;font-variant:normal;font-weight:normal;font-stretch:normal;text-align:center;line-height:125%;letter-spacing:0px;word-spacing:0px;text-anchor:middle;fill:#ffffff;fill-opacity:1;stroke:none;font-family:Swis721 BdOul BT;-inkscape-font-specification:Swis721 BdOul BT"
         xml:space="preserve"><textPath
           id="textPath4781"
           startOffset="50%"
           xlink:href="#path4757"><tspan
   x="196.41724"
   y="823.95618"
   style="font-size:72px;fill:#ffffff;font-family:Algerian;-inkscape-font-specification:Algerian"
   id="tspan4779">SINCE 2k02</tspan></textPath></text>
    </g>
  </g>
</svg>
