<?xml version="1.0" encoding="UTF-8" standalone="no"?>
<!-- Created with Inkscape (http://www.inkscape.org/) -->

<svg
   xmlns:dc="http://purl.org/dc/elements/1.1/"
   xmlns:cc="http://creativecommons.org/ns#"
   xmlns:rdf="http://www.w3.org/1999/02/22-rdf-syntax-ns#"
   xmlns:svg="http://www.w3.org/2000/svg"
   xmlns="http://www.w3.org/2000/svg"
   xmlns:sodipodi="http://sodipodi.sourceforge.net/DTD/sodipodi-0.dtd"
   xmlns:inkscape="http://www.inkscape.org/namespaces/inkscape"
   width="708.66138"
   height="708.66138"
   id="svg3077"
   version="1.1"
   inkscape:version="0.48.4 r9939"
   sodipodi:docname="kumpanie.svg">
  <defs
     id="defs3079" />
  <sodipodi:namedview
     id="base"
     pagecolor="#ffffff"
     bordercolor="#666666"
     borderopacity="1.0"
     inkscape:pageopacity="0.0"
     inkscape:pageshadow="2"
     inkscape:zoom="0.98994949"
     inkscape:cx="276.37819"
     inkscape:cy="422.46718"
     inkscape:document-units="px"
     inkscape:current-layer="layer1"
     showgrid="false"
     units="m"
     inkscape:window-width="2498"
     inkscape:window-height="1418"
     inkscape:window-x="-8"
     inkscape:window-y="-8"
     inkscape:window-maximized="1" />
  <metadata
     id="metadata3082">
    <rdf:RDF>
      <cc:Work
         rdf:about="">
        <dc:format>image/svg+xml</dc:format>
        <dc:type
           rdf:resource="http://purl.org/dc/dcmitype/StillImage" />
        <dc:title />
      </cc:Work>
    </rdf:RDF>
  </metadata>
  <g
     inkscape:label="Layer 1"
     inkscape:groupmode="layer"
     id="layer1"
     transform="translate(0,-343.6886)">
    <rect
       style="fill:#000000;fill-opacity:1;fill-rule:nonzero;stroke:none"
       id="rect3938"
       width="713.16772"
       height="711.1474"
       x="-2.0203052"
       y="-1.4758624"
       transform="translate(0,343.6886)" />
    <g
       id="g3976"
       style="fill:#ffdd55"
       transform="translate(2.0203035,-7.0710679)">
      <path
         style="fill:#ffdd55"
         d="m 159.58185,533.07743 0.35372,-1.80147 -0.7985,-0.1675 -0.79848,-0.16751 0.27742,-1.32485 0.27742,-1.32485 4.52826,-2.70799 4.52831,-2.70799 -1.51684,0.23086 -1.51681,0.23083 0.64658,-1.00153 c 0.3556,-0.55086 2.60968,-1.81286 5.00894,-2.80449 2.39927,-0.99161 6.08898,-2.95321 8.19933,-4.35908 2.11038,-1.40588 4.99872,-3.32667 6.41855,-4.26846 4.98648,-3.30756 13.81247,-11.0595 16.91037,-14.85253 l 3.12983,-3.83219 3.53101,-2.63588 3.53097,-2.63591 -0.95059,-1.71431 c -0.52282,-0.94288 -1.73735,-2.88115 -2.69891,-4.30727 l -1.74831,-2.59295 0.30783,-1.46492 0.30782,-1.4649 -0.78756,-0.16524 -0.78756,-0.16527 -1.61406,-6.26588 -1.61407,-6.2658 0.56826,-2.70711 0.56822,-2.7071 -0.79621,-0.16705 -0.79619,-0.16704 -0.52881,-2.82037 -0.52881,-2.82039 1.1066,-2.12228 1.10657,-2.12224 -2.03441,-1.81304 -2.03445,-1.81301 -0.0852,-1.69611 -0.0852,-1.69614 0.86965,-0.10697 0.86963,-0.10696 -0.69449,-1.31522 c -0.38195,-0.72334 -1.1765,-1.41634 -1.76563,-1.53999 l -1.07112,-0.22522 -1.37506,-3.34566 -1.3751,-3.34573 0.53704,-0.56451 0.53705,-0.56453 -0.29029,-3.43948 -0.29032,-3.43947 1.06207,-0.69359 1.0621,-0.69358 -0.93825,-3.20121 c -0.51611,-1.76066 -0.84057,-3.66695 -0.72107,-4.23619 l 0.21775,-1.03492 1.20169,-0.1933 1.2017,-0.19334 -1.25023,-4.00239 -1.25023,-4.00242 0.57409,-0.37491 0.57412,-0.37492 2.86594,2.90112 2.86596,2.90111 -1.13111,-2.62341 c -1.23522,-2.86482 -2.96334,-8.95874 -3.49313,-12.31781 l -0.33533,-2.12615 0.60746,0.12815 c 0.33421,0.0702 2.57801,3.14481 4.98627,6.83259 2.40828,3.68777 4.51225,6.61781 4.67551,6.51119 0.16346,-0.10682 -0.90719,-3.51036 -2.37886,-7.56381 l -2.67574,-7.36995 0.0635,-2.66806 0.0634,-2.66805 0.9372,1.44719 c 0.51545,0.79593 3.19982,5.41295 5.96526,10.26001 2.76547,4.84701 5.22553,8.68386 5.46681,8.52629 0.24131,-0.15752 -0.1898,-2.64344 -0.95797,-5.52417 l -1.39666,-5.23772 -0.2334,-4.99895 -0.23342,-4.99895 0.84025,-1.68473 c 0.46215,-0.92658 1.08309,-1.63373 1.37985,-1.57145 0.29673,0.0625 1.26192,3.40084 2.14477,7.41899 l 1.60518,7.30573 2.10713,3.11914 2.10715,3.11915 -0.57554,-4.55612 -0.57553,-4.55609 0.73901,-3.59638 c 0.84092,-4.09219 2.16539,-7.04842 3.0726,-6.85799 l 0.61637,0.13001 -0.0659,3.06811 -0.0657,3.06806 1.06303,2.14762 1.06302,2.14761 2.2763,-2.49323 2.27625,-2.49325 0.69433,0.66054 0.69436,0.66056 -0.78215,3.74653 -0.78214,3.74652 0.19877,3.10013 0.19877,3.10015 1.43983,1.97944 c 3.0166,4.14807 6.36707,8.28959 6.43683,7.95727 0.04,-0.1904 -1.30434,-2.48096 -2.98732,-5.09008 l -3.06,-4.74388 -0.0993,-6.02105 c -0.0547,-3.31156 0.13079,-7.11788 0.41227,-8.45847 l 0.51118,-2.43755 1.07799,0.22662 1.078,0.22661 2.49973,10.44091 2.49968,10.44093 2.61473,4.17954 2.61474,4.17954 -0.52008,-1.78582 c -0.28606,-0.9822 -1.11897,-2.61001 -1.85089,-3.61738 l -1.33078,-1.8316 -0.35321,-4.63698 -0.35318,-4.637 1.02648,-5.66144 1.02648,-5.66146 0.85755,-0.11382 0.85756,-0.11383 0.87266,4.79416 c 0.47995,2.63675 1.03095,7.72254 1.22448,11.30171 0.1935,3.57919 0.61642,6.91951 0.93978,7.42298 l 0.58792,0.91538 1.04224,-4.74153 1.04222,-4.7415 1.52703,-2.53468 1.52702,-2.5347 0.93879,-0.10183 0.93877,-0.10183 -0.76921,6.24468 c -0.42299,3.43461 -1.12278,7.92961 -1.55503,9.98892 l -0.7864,3.74412 0.28617,6.57463 0.28617,6.57468 2.34223,6.82369 2.34221,6.82366 0.48616,5.93766 c 0.26742,3.26571 1.08695,8.38578 1.82121,11.37798 l 1.33497,5.44026 1.43175,-0.17006 c 0.78744,-0.0936 4.95342,-0.94706 9.25763,-1.89666 l 7.8259,-1.72661 3.91375,0.4366 3.91374,0.43659 3.57161,1.82096 c 1.9644,1.00156 4.76577,2.76299 6.22529,3.91426 l 2.65364,2.09325 4.8227,1.0122 4.82273,1.01221 -0.17102,0.81564 -0.17103,0.81563 -1.94139,0.31272 c -1.06776,0.17201 -4.09416,0.47377 -6.72529,0.67058 l -4.78396,0.35782 -11.9473,6.02148 -11.94728,6.02145 -8.07351,6.5451 -8.07349,6.54509 -4.81033,2.11382 -4.81035,2.11384 1.06925,2.19983 1.06926,2.19982 -0.55786,5.27501 -0.55786,5.27498 -3.49572,2.00237 c -1.92266,1.10129 -3.84549,1.92897 -4.27293,1.83923 l -0.77721,-0.16314 1.4933,-1.14545 c 0.82131,-0.63003 1.83972,-1.53741 2.26308,-2.01643 l 0.76974,-0.87097 -1.18064,0.18995 -1.18065,0.18995 1.36037,-4.74691 1.36032,-4.74692 -0.64323,-0.13562 c -0.35385,-0.0743 -1.66785,0.48927 -2.91998,1.25233 l -2.27662,1.38735 -1.33276,-0.26952 -1.33274,-0.26948 -0.62535,1.53606 c -0.34403,0.84477 -1.02153,1.80927 -1.50557,2.14328 l -0.8802,0.6073 0.43803,-2.08984 0.43801,-2.08978 4.00521,-2.20178 4.00518,-2.20177 -1.76175,0.44984 c -2.08574,0.53255 -7.62208,1.41957 -8.19534,1.31302 -0.22072,-0.0407 -1.30698,0.51696 -2.41403,1.23991 l -2.01287,1.31448 -9.14589,-1.77027 c -5.03021,-0.97367 -9.9064,-1.72149 -10.83595,-1.66186 -0.92954,0.0596 -6.46359,1.20771 -12.29787,2.5513 l -10.6078,2.44288 -3.03028,2.95592 c -1.66664,1.62573 -3.29331,2.90891 -3.61485,2.85152 -0.54822,-0.0986 -10.18983,6.36517 -17.06846,11.44164 l -3.07816,2.27171 0.35372,-1.80147 z"
         id="path3467"
         inkscape:connector-curvature="0" />
      <path
         style="fill:#ffdd55"
         d="m 461.16474,477.02317 1.82537,-0.19604 -0.0765,-0.81227 -0.0765,-0.81232 1.34761,-0.12692 1.34764,-0.12696 3.92808,3.52255 3.92812,3.52254 -0.66989,-1.3803 -0.66994,-1.38031 1.14811,0.32081 c 0.63152,0.17646 2.50474,1.95531 4.16275,3.95304 1.65801,1.9977 4.62478,4.94049 6.59283,6.53951 1.96818,1.5989 4.6584,3.7886 5.97855,4.86563 4.63661,3.78246 14.65558,9.91523 19.19615,11.75012 l 4.58748,1.85378 3.56383,2.59137 3.56384,2.59137 1.35563,-1.41584 c 0.74578,-0.77864 2.237,-2.51302 3.31415,-3.85403 l 1.95843,-2.43817 1.49026,-0.14037 1.49027,-0.14046 -0.0754,-0.80114 -0.0755,-0.80113 5.50622,-3.39818 5.50621,-3.39818 2.7539,-0.25941 2.75392,-0.25948 -0.0763,-0.80993 -0.0764,-0.80997 2.53705,-1.34077 2.53704,-1.34074 2.35485,0.42807 2.35483,0.42809 1.12887,-2.48032 1.12871,-2.48028 1.59478,-0.58386 1.59471,-0.58389 0.35981,0.79887 0.35982,0.79888 1.05029,-1.05299 c 0.57785,-0.57902 1.00417,-1.5434 0.94775,-2.14268 l -0.10268,-1.0897 2.78798,-2.30474 2.78792,-2.30475 0.69824,0.3457 0.69832,0.34574 3.19897,-1.29641 3.199,-1.29641 0.97688,0.80924 0.97674,0.80926 2.7795,-1.84465 c 1.52869,-1.01455 3.25324,-1.88927 3.83231,-1.94387 l 1.0529,-0.0992 0.54074,1.09051 0.54069,1.09041 3.45219,-2.38007 3.45219,-2.38006 0.52819,0.43721 0.52807,0.43735 -1.92163,3.59684 -1.92163,3.59685 2.17048,-1.85756 c 2.37008,-2.02858 7.67836,-5.48478 10.72962,-6.98612 l 1.93126,-0.95021 0.0582,0.6181 c 0.032,0.33997 -2.23973,3.39404 -5.04896,6.78636 -2.809,3.39246 -4.98364,6.27048 -4.83346,6.3948 0.15032,0.12444 3.0839,-1.9066 6.51929,-4.51322 l 6.24617,-4.73928 2.56704,-0.72993 2.56711,-0.73 -1.10393,1.32445 c -0.60693,0.72865 -4.22173,4.66003 -8.03171,8.7375 -3.80995,4.07746 -6.74555,7.56391 -6.52356,7.74767 0.22241,0.18318 2.46849,-0.96451 4.99227,-2.55172 l 4.58867,-2.88595 4.70529,-1.70412 4.7053,-1.70414 1.85803,0.30335 c 1.02189,0.16687 1.8813,0.5504 1.90978,0.85227 0.0284,0.30192 -2.87427,2.2129 -6.45036,4.24668 l -6.50205,3.69783 -2.35472,2.93672 -2.35477,2.93673 4.18097,-1.89967 4.18099,-1.89971 3.65383,-0.35985 c 4.15757,-0.40938 7.37351,-0.0203 7.46044,0.90259 l 0.059,0.62714 -2.9498,0.84624 -2.9498,0.84622 -1.73615,1.6517 -1.73614,1.65166 3.05573,1.43531 3.05575,1.43526 -0.42524,0.85884 -0.42527,0.85881 -3.80998,0.36362 -3.80997,0.36358 -2.90205,1.10846 -2.90203,1.10843 -1.4641,1.96158 c -3.06842,4.10985 -6.0308,8.53735 -5.69264,8.50556 0.19397,-0.0183 1.98312,-1.98084 3.97636,-4.3614 l 3.62415,-4.32823 5.72122,-1.87891 c 3.14666,-1.0334 6.83707,-1.98403 8.20081,-2.11249 l 2.47956,-0.23361 0.10332,1.09667 0.10332,1.09673 -9.23139,5.48113 -9.23135,5.4811 -3.21713,3.73576 -3.21709,3.73567 1.55152,-1.02583 c 0.85338,-0.56413 2.1612,-1.8421 2.90653,-2.83961 l 1.3551,-1.81366 4.32412,-1.71127 4.32412,-1.71131 5.71134,-0.69705 5.7114,-0.69704 0.36286,0.78532 0.36284,0.7853 -4.32029,2.25396 c -2.37618,1.23967 -7.07026,3.27288 -10.43137,4.51824 -3.36114,1.24536 -6.42619,2.639 -6.81124,3.09705 l -0.6998,0.83294 4.83742,-0.40939 4.83737,-0.40947 2.87334,0.70744 2.87339,0.70741 0.37546,0.86642 0.37548,0.86647 -6.19217,1.11563 c -3.40571,0.61372 -7.90618,1.27722 -10.00113,1.47455 l -3.80894,0.35885 -6.19461,2.22142 -6.19463,2.2214 -5.82325,4.25897 -5.8232,4.25895 -5.52696,2.22369 c -3.03984,1.22302 -7.68718,3.52288 -10.32743,5.11076 l -4.80038,2.88701 0.58666,1.31703 c 0.32264,0.72436 2.37221,4.45033 4.55456,8.27991 l 3.96789,6.96286 0.74268,3.86735 0.74265,3.86739 -0.68096,3.9508 c -0.37452,2.17295 -1.22677,5.3704 -1.8939,7.10549 l -1.21298,3.15475 0.46216,4.90603 0.46221,4.90609 -0.82971,0.0781 -0.82969,0.0781 -0.87393,-1.76154 c -0.48067,-0.96883 -1.6656,-3.76988 -2.63316,-6.2246 l -1.75929,-4.46306 -9.29109,-9.62663 -9.2911,-9.62662 -8.64333,-5.77159 -8.6434,-5.77163 -3.44424,-3.96794 -3.44429,-3.96803 -1.78416,1.67317 -1.78413,1.67313 -5.20346,1.03017 -5.2034,1.03019 -2.94826,-2.74545 c -1.62146,-1.51003 -2.98175,-3.10121 -3.0227,-3.53609 l -0.0745,-0.79063 1.53638,1.08703 c 0.84533,0.59739 2.01353,1.30149 2.59656,1.56368 l 1.05997,0.47709 -0.53121,-1.07133 -0.53128,-1.07131 4.9368,-0.10728 4.93688,-0.10723 -0.0618,-0.65453 c -0.0339,-0.35994 -0.9615,-1.44796 -2.06129,-2.41779 l -1.99963,-1.76329 -0.13838,-1.35263 -0.13837,-1.35267 -1.65241,-0.14217 c -0.90875,-0.0782 -2.03074,-0.43947 -2.49313,-0.80294 l -0.84055,-0.66106 2.1258,-0.20027 2.12578,-0.20027 3.28966,3.17294 3.28968,3.17298 -0.95161,-1.5494 c -1.12662,-1.83431 -3.6143,-6.85921 -3.68236,-7.43826 -0.0258,-0.22297 -0.88108,-1.09509 -1.89951,-1.93825 l -1.85155,-1.53337 -1.0192,-9.25974 c -0.56064,-5.09283 -1.29111,-9.97167 -1.62348,-10.84178 -0.33239,-0.87014 -3.06868,-5.81544 -6.08061,-10.98966 l -5.47639,-9.40762 -3.72102,-2.01831 c -2.04658,-1.11013 -3.75417,-2.28349 -3.79452,-2.60768 -0.069,-0.55278 -9.09862,-7.84621 -15.98529,-12.91178 l -3.08153,-2.26723 1.82541,-0.19586 z"
         id="path3952"
         inkscape:connector-curvature="0"
         inkscape:transform-center-x="-81.987324"
         inkscape:transform-center-y="264.92115" />
      <path
         inkscape:connector-curvature="0"
         id="path3954"
         d="m 301.4109,454.99698 1.35348,-1.24036 -0.54343,-0.60855 -0.5434,-0.60856 1.00931,-0.90194 1.0093,-0.90194 5.25184,0.50648 5.25188,0.5065 -1.35803,-0.71403 -1.358,-0.71405 1.11468,-0.42265 c 0.61306,-0.23248 3.17632,0.0888 5.69604,0.71395 2.51972,0.62514 6.65372,1.23498 9.18662,1.35523 2.53293,0.12026 5.99761,0.28753 7.69931,0.37171 5.97641,0.29565 17.68034,-0.70864 22.42445,-1.92422 l 4.79303,-1.22815 4.40626,-0.0271 4.40625,-0.0271 0.25179,-1.94398 c 0.13849,-1.0692 0.31069,-3.35006 0.38268,-5.06855 l 0.13088,-3.12456 1.11689,-0.99665 1.11686,-0.99665 -0.53597,-0.60025 -0.53594,-0.60027 2.41796,-6.00166 2.41789,-6.0016 2.06348,-1.84213 2.06344,-1.84215 -0.54186,-0.60683 -0.54184,-0.60682 1.24751,-2.58415 1.24753,-2.58416 2.14988,-1.05197 2.14985,-1.05193 -0.56212,-2.66646 -0.56217,-2.66645 0.93764,-1.41593 0.93767,-1.41595 0.76354,0.42981 0.76351,0.42981 0.2212,-1.47078 c 0.12165,-0.80889 -0.10684,-1.83814 -0.50773,-2.28718 l -0.72866,-0.81676 0.87791,-3.50907 0.87792,-3.50914 0.76722,-0.13583 0.76725,-0.13584 1.80681,-2.94104 1.80678,-2.94104 1.26646,0.0717 1.26648,0.0717 1.14385,-3.13363 c 0.62905,-1.72355 1.49878,-3.45062 1.93269,-3.83797 l 0.78927,-0.70394 1.08205,0.55731 1.08207,0.55728 1.36802,-3.96368 1.36802,-3.96371 0.68457,0.0388 0.6846,0.0388 0.58599,4.03568 0.58602,4.03568 0.64581,-2.78291 c 0.70521,-3.03902 2.92934,-8.96992 4.49565,-11.98831 l 0.99142,-1.91052 0.41298,0.46355 c 0.22739,0.25478 0.20964,4.06103 -0.0395,8.45847 -0.24911,4.39743 -0.29366,8.00434 -0.099,8.01536 0.19495,0.0114 1.35225,-3.36407 2.57229,-7.50023 l 2.21829,-7.5203 1.63397,-2.11015 1.63389,-2.11019 -0.10408,1.72101 c -0.0573,0.94652 -0.63539,6.25581 -1.28475,11.79836 -0.64929,5.54255 -0.94517,10.09071 -0.65745,10.107 0.2877,0.0164 1.41545,-2.24059 2.50609,-5.01534 l 1.983,-5.045 2.77778,-4.16269 2.77777,-4.16269 1.67589,-0.85774 c 0.92174,-0.47173 1.84113,-0.67261 2.04308,-0.44642 0.20179,0.22635 -1.00172,3.48636 -2.67483,7.24478 l -3.042,6.83348 -0.15419,3.76102 -0.1542,3.76103 2.23965,-4.00917 2.23963,-4.00914 2.7285,-2.4567 c 3.10468,-2.79538 5.92471,-4.38943 6.54205,-3.69791 l 0.41905,0.47032 -1.87323,2.43077 -1.87305,2.43084 -0.41834,2.35952 -0.41834,2.3595 3.31157,-0.65665 3.31155,-0.65668 0.16707,0.94366 0.16709,0.94369 -2.85231,2.55199 -2.85228,2.55197 -1.67918,2.61356 -1.67918,2.61358 -0.015,2.44766 c -0.0327,5.12887 0.20769,10.45054 0.461,10.22441 0.14515,-0.12954 0.42184,-2.77101 0.61491,-5.86982 l 0.35101,-5.63426 3.49211,-4.90593 c 1.92058,-2.69829 4.32804,-5.65238 5.34995,-6.56457 l 1.85761,-1.65899 0.73335,0.82195 0.73336,0.82196 -4.18186,9.88804 -4.18191,9.88802 -0.37466,4.91579 -0.37466,4.9158 0.64078,-1.74615 c 0.35242,-0.96039 0.64764,-2.76493 0.65606,-4.01009 l 0.0153,-2.26396 2.4666,-3.94236 2.46663,-3.94236 4.18503,-3.94856 4.18504,-3.94857 0.75787,0.41712 0.75787,0.41713 -2.14168,4.37706 c -1.17792,2.40735 -3.75154,6.82836 -5.71913,9.82444 -1.96761,2.99608 -3.60884,5.93598 -3.64721,6.53312 l -0.0698,1.08568 3.65197,-3.19867 3.65194,-3.19865 2.733,-1.13452 2.733,-1.13455 0.81615,0.47498 0.81613,0.47496 -4.32394,4.57069 c -2.37813,2.51396 -5.60817,5.71733 -7.17783,7.11866 l -2.8543,2.54752 -3.67009,5.46243 -3.67013,5.46246 -2.16269,6.8827 -2.16269,6.88266 -3.13122,5.0683 c -1.72214,2.78759 -4.09994,7.39549 -5.284,10.23985 l -2.15282,5.17146 1.25347,0.7125 c 0.68942,0.3918 4.54941,2.17626 8.57771,3.96534 l 7.32426,3.25285 2.8916,2.67334 2.89158,2.67332 1.79489,3.58479 c 0.98718,1.97165 2.19733,5.05157 2.68925,6.84423 l 0.89438,3.25939 3.28183,3.67594 3.28185,3.67597 -0.62156,0.55515 -0.62157,0.55511 -1.74836,-0.89999 c -0.96161,-0.495 -3.57692,-2.04751 -5.81176,-3.45003 l -4.06343,-2.55007 -13.19,-2.2405 -13.18998,-2.2405 -10.38221,0.47919 -10.38219,0.4792 -5.12641,-1.15212 -5.12644,-1.15213 -0.44432,2.40524 -0.44429,2.40522 -3.57854,3.91549 -3.57851,3.91546 -4.00202,-0.46194 c -2.20112,-0.25408 -4.24004,-0.72853 -4.5309,-1.05435 l -0.52887,-0.59242 1.88166,-0.0362 c 1.03494,-0.0199 2.39309,-0.1462 3.01808,-0.28066 l 1.13636,-0.24449 -1.06312,-0.54751 -1.06312,-0.54752 3.91126,-3.01427 3.91122,-3.01429 -0.43734,-0.49078 c -0.24078,-0.26974 -1.63291,-0.5956 -3.09358,-0.72417 l -2.65576,-0.2338 -0.913,-1.00763 -0.913,-1.0076 -1.41468,0.86556 c -0.77812,0.47594 -1.89572,0.85045 -2.48353,0.83216 l -1.06886,-0.0333 1.59244,-1.42248 1.59239,-1.42244 4.53046,0.60367 4.53043,0.60367 -1.68509,-0.68306 c -1.99499,-0.80868 -6.97804,-3.3791 -7.37631,-3.80496 -0.15353,-0.16372 -1.35882,-0.35923 -2.6789,-0.43401 l -2.40021,-0.13598 -6.31233,-6.85098 c -3.47173,-3.76804 -6.95347,-7.26288 -7.73714,-7.76634 -0.78365,-0.50348 -5.91975,-2.86237 -11.4135,-5.24201 l -9.98867,-4.32663 -4.19303,0.58181 c -2.30615,0.31998 -4.37689,0.38791 -4.60169,0.15095 -0.38282,-0.4046 -11.97912,-0.92117 -20.52817,-0.91537 l -3.82566,0.003 1.35349,-1.24035 z"
         style="fill:#ffdd55" />
      <path
         inkscape:transform-center-y="143.96492"
         inkscape:transform-center-x="217.09644"
         inkscape:connector-curvature="0"
         id="path3958"
         d="m 607.22621,749.5756 0.7218,1.68802 0.7543,-0.31092 0.75434,-0.31095 0.51585,1.25143 0.5159,1.25144 -2.21836,4.78717 -2.21834,4.78721 1.12373,-1.0446 1.12373,-1.04466 0.0293,1.19173 c 0.0161,0.65551 -1.13644,2.9674 -2.5613,5.13758 -1.42483,2.17018 -3.37024,5.86844 -4.3231,8.21836 -0.9527,2.35002 -2.25896,5.56339 -2.90236,7.14099 -2.25947,5.54075 -5.1907,16.9161 -5.61604,21.7949 l -0.42966,4.92918 -1.4346,4.1663 -1.4346,4.1663 1.75066,0.88178 c 0.96284,0.48518 3.05778,1.40336 4.65536,2.04077 l 2.90466,1.1589 0.57047,1.38389 0.57056,1.38387 0.74398,-0.30662 0.74393,-0.30671 4.86118,4.27026 4.86117,4.27024 1.0542,2.55732 1.05428,2.55733 0.75212,-0.31005 0.75212,-0.31016 2.02472,2.03342 2.02468,2.03342 0.28003,2.37701 0.28,2.37699 2.70212,0.35335 2.70204,0.3532 1.02513,1.354 1.02514,1.35393 -0.65855,0.57791 -0.65855,0.57791 1.31432,0.69604 c 0.72281,0.38304 1.76974,0.50837 2.32625,0.279 l 1.01191,-0.41718 3.01991,1.99118 3.01991,1.99111 -0.12616,0.76885 -0.12617,0.76894 2.17606,2.67934 2.17608,2.67936 -0.48783,1.17098 -0.48788,1.17085 2.5775,2.11775 c 1.4176,1.16473 2.75884,2.55767 2.98056,3.09539 l 0.40307,0.97774 -0.88444,0.83628 -0.88437,0.83621 3.28638,2.60423 3.28637,2.60424 -0.26344,0.63304 -0.2636,0.63297 -4.00181,-0.78454 -4.00181,-0.78453 2.41156,1.53163 c 2.63352,1.67242 7.49223,5.73642 9.82101,8.21452 l 1.47393,1.56851 -0.57399,0.23659 c -0.31571,0.13011 -3.901,-1.14807 -7.96708,-2.84119 -4.06614,-1.69287 -7.45467,-2.92975 -7.52958,-2.74976 -0.075,0.18016 2.72584,2.39068 6.22393,4.91254 l 6.36013,4.5852 1.44942,2.24091 1.4495,2.24096 -1.58959,-0.66786 c -0.8744,-0.36704 -5.69174,-2.67264 -10.7059,-5.12211 -5.01414,-2.44944 -9.20721,-4.23584 -9.31794,-3.96979 -0.11005,0.26629 1.64487,2.07802 3.90134,4.02661 l 4.10279,3.54284 3.00687,4.00032 3.00688,4.00032 0.25385,1.86544 c 0.13958,1.02597 0.0244,1.96001 -0.25588,2.07561 -0.28038,0.11554 -2.95736,-2.10057 -5.94889,-4.92465 l -5.43921,-5.13474 -3.49738,-1.3919 -3.4974,-1.39193 3.04036,3.44172 3.04041,3.44173 1.41369,3.38843 c 1.6085,3.8556 2.17788,7.04456 1.32087,7.39784 l -0.5824,0.24 -1.67268,-2.57286 -1.67265,-2.57286 -2.08758,-1.17659 -2.08753,-1.17659 -0.47792,3.34204 -0.47787,3.34203 -0.9457,-0.1552 -0.94568,-0.15523 -1.463,-3.53664 -1.46296,-3.53664 -1.90943,-2.45044 -1.90939,-2.45043 -2.30424,-0.82574 c -4.82805,-1.73091 -9.92879,-3.26745 -9.7994,-2.95341 0.0743,0.18012 2.4746,1.31639 5.33436,2.52545 l 5.19954,2.19837 3.4714,4.92058 c 1.90926,2.7063 3.89855,5.95677 4.4206,7.22317 l 0.94923,2.30255 -1.01839,0.41983 -1.01844,0.41984 -7.94336,-7.22249 -7.94332,-7.22246 -4.51388,-1.98262 -4.51377,-1.9826 1.43507,1.18326 c 0.78923,0.65085 2.39406,1.52728 3.56606,1.94795 l 2.13089,0.76482 2.90212,3.63375 2.90216,3.63374 2.33842,5.2571 2.33842,5.25716 -0.64469,0.57686 -0.64469,0.57683 -3.41991,-3.47123 c -1.88096,-1.9092 -5.19921,-5.80246 -7.37393,-8.65177 -2.17472,-2.84935 -4.40456,-5.37216 -4.95526,-5.60626 l -1.00131,-0.42531 1.80754,4.50567 1.80759,4.50559 0.16467,2.95457 0.16472,2.9546 -0.71856,0.61264 -0.7186,0.61268 -2.87941,-5.59434 c -1.5838,-3.07686 -3.53568,-7.18595 -4.33762,-9.13137 l -1.45814,-3.53704 -3.93748,-5.27296 -3.93746,-5.27299 -5.77707,-4.32141 -5.77702,-4.32138 -3.74421,-4.63389 c -2.05931,-2.54866 -5.61885,-6.31917 -7.91006,-8.37894 l -4.16578,-3.74497 -1.0876,0.9465 c -0.59818,0.52055 -3.56095,3.57106 -6.58393,6.77885 l -5.49631,5.83234 -3.48053,1.84225 -3.48057,1.84223 -3.97708,0.5054 c -2.18739,0.27798 -5.49426,0.39907 -7.34863,0.26908 l -3.37163,-0.23634 -4.55583,1.87807 -4.55587,1.87814 -0.31756,-0.7705 -0.31756,-0.77048 1.42855,-1.35131 c 0.78568,-0.74322 3.11716,-2.69621 5.18111,-4.33996 l 3.75254,-2.98871 6.48512,-11.70212 6.4851,-11.70213 2.98856,-9.95424 2.98859,-9.95432 2.78587,-4.45491 2.78595,-4.45499 -2.12216,-1.21621 -2.12211,-1.21619 -2.50827,-4.67395 -2.50827,-4.67389 1.76213,-3.62279 c 0.96922,-1.99247 2.0925,-3.75896 2.49634,-3.92542 l 0.73419,-0.30268 -0.58966,1.78728 c -0.32377,0.98318 -0.65505,2.30632 -0.73509,2.94056 l -0.1459,1.1532 0.8689,-0.82156 0.86886,-0.82161 1.54774,4.68913 1.54773,4.68923 0.60776,-0.2507 c 0.33425,-0.13778 1.10307,-1.34325 1.70847,-2.67876 l 1.10069,-2.42821 1.25287,-0.52828 1.25291,-0.52828 -0.34778,-1.62164 c -0.19124,-0.89183 -0.17424,-2.07043 0.038,-2.61896 l 0.38604,-0.99725 0.81379,1.97405 0.81379,1.97404 -2.07096,4.07438 -2.07098,4.07441 1.20296,-1.36349 c 1.42415,-1.61423 5.50071,-5.46389 6.03447,-5.69848 0.20565,-0.0899 0.78919,-1.16305 1.29729,-2.38369 l 0.92419,-2.21931 8.55575,-3.68519 c 4.70562,-2.02692 9.1569,-4.15359 9.8916,-4.72611 0.73472,-0.57255 4.66238,-4.63663 8.72825,-9.03129 l 7.39239,-7.99042 0.84062,-4.14884 c 0.4624,-2.2819 1.08449,-4.25817 1.38267,-4.39165 0.50837,-0.2278 4.83903,-10.9969 7.66673,-19.06476 l 1.26585,-3.61023 0.72164,1.68811 z"
         style="fill:#ffdd55" />
      <path
         style="fill:#ffdd55"
         d="m 581.52221,590.37213 1.58224,0.93109 0.42281,-0.69777 0.42283,-0.69774 1.15789,0.70107 1.15788,0.70106 1.0531,5.17004 1.05309,5.17009 0.28521,-1.50756 0.28524,-1.50754 0.73044,0.94212 c 0.40175,0.51815 0.8449,3.06318 0.98474,5.65552 0.13985,2.59234 0.76689,6.72377 1.39337,9.18091 0.62648,2.45718 1.48077,5.81905 1.89842,7.47085 1.4668,5.80115 5.85323,16.69839 8.40432,20.87884 l 2.57743,4.22355 1.31577,4.2053 1.31577,4.2053 1.93253,-0.32831 c 1.06291,-0.18056 3.29426,-0.68359 4.95854,-1.11782 l 3.026,-0.78951 1.27994,0.77621 1.27994,0.77618 0.41706,-0.6882 0.41708,-0.68819 6.44657,0.55516 6.4465,0.5551 2.36548,1.43383 2.36549,1.43379 0.42163,-0.69576 0.42162,-0.69574 2.83614,0.43639 2.83615,0.43641 1.63523,1.74776 1.63518,1.74774 2.3851,-1.31806 2.38508,-1.31811 1.62838,0.48208 1.62841,0.4821 -0.18747,0.85591 -0.18747,0.85588 1.4711,-0.21903 c 0.80907,-0.12047 1.72634,-0.64025 2.03836,-1.15503 l 0.56768,-0.93583 3.61234,-0.18777 3.61242,-0.18778 0.35447,0.69385 0.35449,0.69387 3.34112,0.86672 3.34111,0.86669 0.30217,1.23198 0.30219,1.23199 3.3312,0.17642 c 1.83219,0.0969 3.7382,0.42301 4.23561,0.72452 l 0.90414,0.54863 -0.21614,1.19779 -0.21611,1.19781 4.19051,0.14779 4.19054,0.14778 0.1633,0.66594 0.16331,0.66597 -3.68736,1.7417 -3.68734,1.74173 2.85005,-0.19714 c 3.11233,-0.2153 9.4345,0.17522 12.77918,0.78934 l 2.11705,0.38871 -0.32235,0.53059 c -0.17706,0.29201 -3.82177,1.38925 -8.09951,2.43831 -4.27771,1.04907 -7.73966,2.06234 -7.69322,2.2517 0.0462,0.18975 3.61256,0.30824 7.92468,0.26404 l 7.84023,-0.0803 2.49603,0.94468 2.49605,0.94459 -1.67609,0.40428 c -0.92183,0.22229 -6.16777,1.22373 -11.65761,2.22531 -5.48982,1.00164 -9.92536,2.05012 -9.85671,2.33 0.0685,0.2799 2.55679,0.69755 5.52925,0.92815 l 5.40449,0.4193 4.79349,1.43753 4.79349,1.43753 1.31075,1.35139 c 0.72089,0.74327 1.18211,1.56358 1.02494,1.8229 -0.15736,0.25921 -3.62687,0.0627 -7.71042,-0.43687 l -7.42463,-0.90835 -3.6414,0.95354 -3.64142,0.95353 4.48917,0.96792 4.48913,0.96792 3.1478,1.88981 c 3.58177,2.15038 5.93151,4.38024 5.451,5.17297 l -0.32705,0.53837 -2.87264,-1.0796 -2.87266,-1.07941 -2.37862,0.29069 -2.3786,0.29069 1.59729,2.97428 1.59731,2.97426 -0.85341,0.43599 -0.85344,0.43602 -3.27516,-1.98031 -3.27514,-1.98029 -2.99062,-0.84054 -2.99065,-0.84054 -2.34482,0.70217 c -4.91377,1.47012 -9.93195,3.25781 -9.64157,3.43383 0.16635,0.10087 2.77311,-0.4078 5.79269,-1.13032 l 5.4902,-1.3137 5.71327,1.903 c 3.14231,1.04657 6.67174,2.48381 7.84312,3.19392 l 2.1301,1.2906 -0.57127,0.94183 -0.57127,0.94185 -10.67906,-1.1041 -10.67905,-1.10417 -4.81012,1.08077 -4.81014,1.08078 1.85724,0.10155 c 1.02148,0.0558 2.83339,-0.19012 4.02647,-0.54657 l 2.16927,-0.64811 4.49171,1.20449 4.49173,1.20452 5.00069,2.84582 5.0007,2.84583 -0.17699,0.84678 -0.17701,0.84678 -4.81226,-0.76655 c -2.64671,-0.42161 -7.62744,-1.58831 -11.06825,-2.59266 -3.44082,-1.00436 -6.73238,-1.71309 -7.31459,-1.57497 l -1.05855,0.25107 4.1276,2.55563 4.12757,2.55561 1.88487,2.28117 1.88489,2.28116 -0.21526,0.91944 -0.21525,0.91941 -5.63623,-2.79653 c -3.09999,-1.53803 -7.10857,-3.68884 -8.90801,-4.77953 l -3.27147,-1.98352 -6.2975,-1.91028 -6.29754,-1.91031 -7.21429,-0.0532 -7.21425,-0.0532 -5.7629,-1.51039 c -3.1696,-0.83068 -8.27171,-1.75543 -11.33808,-2.05498 l -5.57513,-0.54465 -0.31435,1.40713 c -0.17282,0.77391 -0.74916,4.98718 -1.28065,9.36274 l -0.9663,7.95563 -1.70976,3.54751 -1.70975,3.54748 -2.90233,2.76566 c -1.5963,1.5211 -4.18705,3.57983 -5.75718,4.57498 l -2.8548,1.80933 -2.55421,4.21414 -2.55423,4.21416 -0.71278,-0.43182 -0.71275,-0.43184 0.34876,-1.93523 c 0.19182,-1.06439 0.91073,-4.0196 1.5976,-6.56711 l 1.24886,-4.63192 -1.7188,-13.26807 -1.7188,-13.26805 -3.49742,-9.78713 -3.49742,-9.78711 -0.39902,-5.23911 -0.39903,-5.23913 -2.42994,0.27923 -2.42991,0.27926 -4.79153,-2.27558 -4.79149,-2.27556 -0.72982,-3.96193 c -0.4014,-2.17908 -0.54459,-4.26757 -0.31819,-4.64107 l 0.41165,-0.67912 0.58544,1.78863 c 0.32199,0.98378 0.84034,2.24546 1.15186,2.80371 l 0.56643,1.01502 0.21232,-1.17683 0.21232,-1.17682 4.02719,2.85754 4.02719,2.8575 0.34125,-0.56185 c 0.18744,-0.30919 0.0915,-1.73573 -0.21314,-3.17005 l -0.55388,-2.60786 0.69623,-1.16797 0.69619,-1.16797 -1.24176,-1.09933 c -0.68288,-0.60471 -1.36814,-1.56372 -1.52272,-2.13113 l -0.28105,-1.03179 1.82633,1.10627 1.82627,1.10624 0.74899,4.50872 0.74899,4.50868 0.15985,-1.81123 c 0.18926,-2.14432 1.18837,-7.66153 1.47899,-8.16702 0.1116,-0.19473 -0.0543,-1.40445 -0.36921,-2.6886 l -0.5726,-2.33487 4.70304,-8.04132 c 2.58668,-4.42268 4.90921,-8.77496 5.1612,-9.67168 0.25203,-0.89671 1.00408,-6.49834 1.67127,-12.44803 l 1.21308,-10.81766 -1.78377,-3.83904 c -0.98105,-2.11145 -1.65218,-4.0716 -1.4914,-4.35592 0.27481,-0.48449 -2.62588,-11.72402 -5.13402,-19.89687 l -1.12276,-3.65719 1.58222,0.9311 z"
         id="path3960"
         inkscape:connector-curvature="0" />
      <path
         style="fill:#ffdd55"
         d="m 536.13371,893.31324 -0.44085,1.78215 0.78942,0.2061 0.7894,0.20613 -0.3415,1.3098 -0.34147,1.30981 -4.65454,2.48468 -4.65457,2.4847 1.52627,-0.15685 1.52624,-0.15684 -0.69451,0.96893 c -0.38194,0.53292 -2.69467,1.68391 -5.13931,2.55772 -2.44463,0.87383 -6.22533,2.65378 -8.40151,3.95542 -2.17623,1.30163 -5.15451,3.07977 -6.61844,3.95143 -5.14134,3.0613 -14.33367,10.37509 -17.61227,14.01309 l -3.31238,3.67553 -3.65496,2.46114 -3.65495,2.46113 0.86615,1.75848 c 0.47638,0.96718 1.59526,2.9622 2.48637,4.43335 l 1.62022,2.67486 -0.37867,1.44823 -0.37866,1.44821 0.77861,0.20333 0.77858,0.20335 1.30762,6.33693 1.30762,6.33681 -0.69917,2.6763 -0.69912,2.67631 0.78714,0.20549 0.78715,0.2056 0.39113,2.84269 0.39115,2.84279 -1.20843,2.06601 -1.20843,2.06591 1.94389,1.90977 1.94393,1.90977 0.003,1.69824 0.003,1.69824 -0.87385,0.0645 -0.87384,0.0645 0.62974,1.34743 c 0.34635,0.74108 1.10628,1.47186 1.68869,1.62397 l 1.05892,0.27705 1.21082,3.40854 1.21086,3.40863 -0.56386,0.53768 -0.56384,0.53779 0.12279,3.44953 0.12278,3.4495 -1.09451,0.6411 -1.09452,0.6412 0.78155,3.2431 c 0.42994,1.7837 0.66134,3.7035 0.51433,4.2662 l -0.26781,1.0231 -1.20958,0.1353 -1.20959,0.1353 1.0542,4.0583 1.05424,4.0585 -0.59166,0.3466 -0.59168,0.3464 -2.72154,-3.0369 -2.72156,-3.037 1.00226,2.6753 c 1.09454,2.9215 2.52443,9.0923 2.89032,12.4731 l 0.23157,2.1399 -0.60052,-0.1576 c -0.33038,-0.086 -2.4221,-3.2663 -4.64829,-7.0669 -2.22619,-3.8004 -4.18525,-6.8292 -4.35349,-6.7306 -0.16871,0.098 0.7355,3.5502 2.00843,7.6705 l 2.31436,7.4913 -0.1931,2.6618 -0.19301,2.6617 -0.86577,-1.4909 c -0.47612,-0.8201 -2.93295,-5.5621 -5.45954,-10.5379 -2.52663,-4.9757 -4.79729,-8.9276 -5.04593,-8.7818 -0.24871,0.1455 0.0611,2.6495 0.68834,5.5642 l 1.14043,5.2994 -0.01,5.0044 -0.01,5.0043 -0.92113,1.6419 c -0.50664,0.903 -1.16121,1.5792 -1.45459,1.5026 -0.29338,-0.077 -1.09516,-3.4582 -1.78166,-7.5146 l -1.24823,-7.3751 -1.95302,-3.2178 -1.95306,-3.2179 0.35338,4.5787 0.35339,4.5788 -0.91294,3.5561 c -1.03882,4.0465 -2.5054,6.9349 -3.40229,6.7006 l -0.60931,-0.1598 0.21493,-3.0613 0.21474,-3.0613 -0.95739,-2.1967 -0.95739,-2.1967 -2.39479,2.3796 -2.39474,2.3796 -0.66141,-0.6935 -0.66144,-0.6935 0.96333,-3.7041 0.96331,-3.704 -0.0478,-3.1062 -0.0479,-3.1062 -1.3421,-2.0468 c -2.81125,-4.2899 -5.95666,-8.5893 -6.04248,-8.2607 -0.0492,0.1882 1.18221,2.5414 2.73639,5.2292 l 2.82581,4.887 -0.19346,6.0188 c -0.10632,3.3102 -0.47661,7.103 -0.82289,8.4284 l -0.62906,2.4097 -1.0657,-0.2786 -1.06571,-0.2788 -1.98931,-10.5501 -1.98925,-10.55 -2.4085,-4.3017 -2.40851,-4.3017 0.43267,1.809 c 0.23796,0.995 0.99078,2.6613 1.67288,3.703 l 1.2402,1.8942 0.12743,4.6487 0.12737,4.6486 -1.30043,5.6049 -1.30043,5.6048 -0.86199,0.073 -0.86199,0.073 -0.6386,-4.8309 c -0.35128,-2.657 -0.6544,-7.7636 -0.67374,-11.3479 -0.0193,-3.5844 -0.27938,-6.9413 -0.57794,-7.4598 l -0.54272,-0.943 -1.27146,4.6853 -1.27145,4.6852 -1.64841,2.4575 -1.64841,2.4575 -0.94231,0.061 -0.94229,0.061 1.07182,-6.2001 c 0.58944,-3.4098 1.50688,-7.8655 2.03868,-9.9014 l 0.96745,-3.7014 0.0337,-6.58087 0.0337,-6.58082 -2.0078,-6.92943 -2.0078,-6.92943 -0.19698,-5.95431 c -0.10839,-3.27483 -0.67809,-8.42867 -1.26605,-11.45301 l -1.06897,-5.49873 -1.43835,0.1 c -0.79105,0.0551 -4.99359,0.7052 -9.33887,1.4445 l -7.90057,1.3442 -3.88791,-0.62631 -3.88788,-0.6263 -3.47889,-1.99241 c -1.91338,-1.09583 -4.62585,-2.99134 -6.02768,-4.2122 l -2.54878,-2.21974 -4.7678,-1.24541 -4.76782,-1.24542 0.21044,-0.80636 0.21051,-0.80636 1.95426,-0.21807 c 1.07487,-0.11986 4.11239,-0.27374 6.74994,-0.34286 l 4.7957,-0.1249 12.22584,-5.43367 12.22582,-5.43366 8.38209,-6.14496 8.38206,-6.14496 4.90739,-1.87753 4.9074,-1.87753 -0.96106,-2.2492 -0.96109,-2.24918 0.8136,-5.24167 0.81358,-5.24163 3.58891,-1.83011 c 1.97392,-1.00655 3.93469,-1.73978 4.35727,-1.62938 l 0.76836,0.20074 -1.54718,1.07151 c -0.85099,0.58934 -1.91229,1.44618 -2.35842,1.90407 l -0.81117,0.83253 1.18848,-0.13241 1.18846,-0.13241 -1.58947,4.67518 -1.58943,4.67518 0.63587,0.16673 c 0.34983,0.0914 1.68967,-0.40763 2.97741,-1.10892 l 2.34136,-1.27505 1.31809,0.33396 1.31807,0.33394 0.69925,-1.50385 c 0.38469,-0.82705 1.10827,-1.75748 1.60797,-2.06756 l 0.90868,-0.56381 -0.5391,2.06609 -0.53905,2.06602 -4.10749,2.0045 -4.10746,2.00449 1.78152,-0.36367 c 2.10916,-0.43058 7.68207,-1.04744 8.24948,-0.91315 0.21847,0.0513 1.33056,-0.45282 2.47143,-1.12111 l 2.07438,-1.2151 9.04906,2.2127 c 4.97695,1.217 9.81101,2.20095 10.74236,2.18656 0.93133,-0.0144 6.51466,-0.89213 12.40734,-1.95051 l 10.71401,-1.92442 3.17036,-2.80514 c 1.7437,-1.54281 3.4308,-2.7454 3.74918,-2.67245 0.54277,0.12512 10.48715,-5.86238 17.60439,-10.59854 l 3.18471,-2.11974 -0.44087,1.78214 z"
         id="path3964"
         inkscape:connector-curvature="0" />
      <path
         style="fill:#ffdd55"
         d="m 392.07842,967.20246 -1.41628,1.16815 0.51099,0.63604 0.51099,0.63603 -1.05493,0.84811 -1.05494,0.84812 -5.21832,-0.77944 -5.21835,-0.77947 1.31899,0.78382 1.31894,0.78384 -1.13518,0.36399 c -0.62435,0.20022 -3.16738,-0.25422 -5.65111,-1.00978 -2.48372,-0.75558 -6.58033,-1.58002 -9.10352,-1.83207 -2.52322,-0.25208 -5.97447,-0.59966 -7.66948,-0.7724 -5.95289,-0.60666 -17.69324,-0.2136 -22.49425,0.75313 l -4.85051,0.97673 -4.40169,-0.20253 -4.40168,-0.20248 -0.35276,1.92823 c -0.19401,1.06051 -0.48481,3.32932 -0.64626,5.04173 l -0.2935,3.11349 -1.16731,0.93709 -1.16728,0.9371 0.50393,0.62739 0.50392,0.62738 -2.72741,5.86752 -2.72734,5.86745 -2.15665,1.73212 -2.15663,1.73212 0.50946,0.63429 0.50944,0.63418 -1.38046,2.51566 -1.3805,2.5156 -2.20177,0.9386 -2.20173,0.9385 0.42245,2.6921 0.42244,2.6921 -1.01013,1.3652 -1.01018,1.3652 -0.74012,-0.4691 -0.74008,-0.469 -0.29753,1.4572 c -0.16363,0.8016 0.0109,1.8413 0.3879,2.3106 l 0.6851,0.8537 -1.05958,3.4584 -1.05956,3.4588 -0.77331,0.095 -0.77333,0.095 -1.95762,2.8429 -1.9576,2.8429 -1.261,-0.1377 -1.26099,-0.1376 -1.30559,3.0698 c -0.718,1.6884 -1.67655,3.3678 -2.13004,3.732 l -0.82492,0.6618 -1.05154,-0.6129 -1.05157,-0.6129 -1.57269,3.887 -1.57269,3.8872 -0.68163,-0.074 -0.68163,-0.074 -0.37493,-4.0609 -0.37493,-4.0607 -0.78994,2.7455 c -0.8626,2.9981 -3.39275,8.8052 -5.11423,11.7378 l -1.08959,1.8563 -0.38828,-0.4845 c -0.2138,-0.2662 0.002,-4.0665 0.48017,-8.4449 0.47791,-4.3785 0.71036,-7.9782 0.51652,-7.9994 -0.19414,-0.021 -1.52571,3.2891 -2.95963,7.356 l -2.60712,7.3946 -1.74171,2.0221 -1.74161,2.0223 0.19363,-1.7133 c 0.10649,-0.9423 0.9605,-6.2143 1.89777,-11.7155 0.93722,-5.5012 1.4697,-10.0277 1.18321,-10.059 -0.28648,-0.032 -1.53027,2.1638 -2.76401,4.878 l -2.24319,4.9348 -2.99092,4.0123 -2.9909,4.0123 -1.71832,0.7692 c -0.94505,0.4231 -1.87367,0.5758 -2.06409,0.3361 -0.18972,-0.2367 1.18201,-3.4295 3.0487,-7.0956 l 3.39393,-6.6658 0.34999,-3.7477 0.34994,-3.748 -2.44551,3.8871 -2.44552,3.8869 -2.85279,2.3111 c -3.24612,2.6299 -6.14527,4.075 -6.72585,3.3521 l -0.39397,-0.4916 1.99737,-2.3298 1.99716,-2.33 0.54073,-2.3344 0.54071,-2.3345 -3.34129,0.4831 -3.34129,0.4831 -0.11767,-0.9511 -0.11768,-0.9511 2.9814,-2.3999 2.98139,-2.3999 1.81308,-2.5225 1.81309,-2.5225 0.14277,-2.4436 c 0.29969,-5.1202 0.33714,-10.4471 0.0724,-10.2345 -0.15168,0.1219 -0.56567,2.7452 -0.91993,5.8298 l -0.64414,5.6083 -3.743,4.7173 c -2.05856,2.5946 -4.61668,5.4192 -5.68474,6.2769 l -1.94152,1.56 -0.68955,-0.8591 -0.68955,-0.859 4.69142,-9.6567 4.69145,-9.6568 0.63033,-4.8895 0.63028,-4.8896 -0.73089,1.7104 c -0.40199,0.9407 -0.79083,2.7274 -0.86412,3.9704 l -0.13328,2.2601 -2.66867,3.8084 -2.66871,3.8085 -4.38509,3.7252 -4.38511,3.725 -0.73509,-0.4559 -0.73511,-0.456 2.36685,-4.2596 c 1.30175,-2.3427 4.10225,-6.6236 6.22328,-9.5131 2.12106,-2.8895 3.91324,-5.7399 3.9827,-6.3341 l 0.12623,-1.0807 -3.81368,3.004 -3.81364,3.0041 -2.78842,0.9905 -2.7884,0.9906 -0.7903,-0.5168 -0.79027,-0.5168 4.55624,-4.3392 c 2.5059,-2.3866 5.89845,-5.41735 7.53902,-6.73498 l 2.98316,-2.39534 3.94974,-5.26377 3.94978,-5.26379 2.51839,-6.76066 2.5184,-6.76062 3.39104,-4.89826 c 1.86505,-2.69406 4.47973,-7.17181 5.81039,-9.95061 l 2.41938,-5.05224 -1.21464,-0.77685 c -0.66808,-0.4272 -4.42983,-2.41037 -8.35943,-4.40691 l -7.14481,-3.63009 -2.74838,-2.82038 -2.74836,-2.82036 -1.60566,-3.67345 c -0.8831,-2.02043 -1.93113,-5.15921 -2.32896,-6.97506 l -0.72332,-3.30156 -3.08583,-3.84196 -3.08584,-3.84199 0.64965,-0.52197 0.64967,-0.52196 1.6991,0.98989 c 0.9345,0.54443 3.46535,2.23112 5.62408,3.74817 l 3.92503,2.75835 13.05533,2.92474 13.05533,2.92476 10.39307,0.0624 10.39305,0.0624 5.05942,1.41769 5.05944,1.41769 0.56904,-2.37882 0.56903,-2.37881 3.77769,-3.7237 3.77768,-3.72368 3.97251,0.66984 c 2.18489,0.36845 4.19632,0.94848 4.46981,1.28903 l 0.49727,0.61917 -1.881,-0.0619 c -1.03456,-0.034 -2.39744,0.0213 -3.0286,0.12295 l -1.14757,0.18479 1.03313,0.60217 1.03314,0.60217 -4.063,2.80637 -4.06296,2.80644 0.41116,0.51291 c 0.22636,0.28193 1.59965,0.67987 3.05164,0.88437 l 2.63998,0.37186 0.85925,1.05385 0.85925,1.05381 1.45788,-0.79066 c 0.80187,-0.43473 1.93744,-0.75052 2.5235,-0.70164 l 1.06567,0.089 -1.66439,1.33756 -1.66434,1.33754 -4.49285,-0.83892 -4.49283,-0.83891 1.64722,0.76993 c 1.95014,0.91153 6.79247,3.73812 7.16801,4.18415 0.14481,0.17149 1.33826,0.42954 2.65266,0.57301 l 2.38987,0.26086 5.94675,7.17059 c 3.27068,3.94382 6.56557,7.61534 7.32195,8.15896 0.75635,0.54362 5.76256,3.16693 11.12486,5.8296 l 9.74964,4.84125 4.21766,-0.36253 c 2.31968,-0.19939 4.39114,-0.15932 4.6033,0.089 0.36122,0.42401 11.91484,1.54413 20.45257,1.9838 l 3.8206,0.19675 -1.41627,1.16814 z"
         id="path3966"
         inkscape:connector-curvature="0" />
      <path
         style="fill:#ffdd55"
         d="m 117.39264,826.20831 -1.53539,-1.00647 -0.45618,0.67642 -0.4562,0.67646 -1.12222,-0.75682 -1.12228,-0.75679 -0.80173,-5.21493 -0.80174,-5.21494 -0.35783,1.49194 -0.35779,1.49201 -0.68395,-0.97637 c -0.37619,-0.53707 -0.69572,-3.10048 -0.71001,-5.69656 -0.0143,-2.59608 -0.44037,-6.75302 -0.94762,-9.23758 -0.50707,-2.48457 -1.19748,-5.8839 -1.53469,-7.55394 -1.18453,-5.86533 -5.03861,-16.96203 -7.384431,-21.26095 l -2.370104,-4.34328 -1.11088,-4.26403 -1.110894,-4.26404 -1.946136,0.23444 c -1.070457,0.12879 -3.323427,0.52349 -5.00686,0.87667 l -3.060649,0.64229 -1.24098,-0.83684 -1.241111,-0.83689 -0.449973,0.66712 -0.44988,0.66716 -6.412114,-0.8663 -6.412161,-0.86638 -2.293329,-1.54653 -2.293394,-1.54648 -0.454874,0.67444 -0.454761,0.67462 -2.811728,-0.57308 -2.811748,-0.57316 -1.548743,-1.82481 -1.548718,-1.82484 -2.446108,1.20119 -2.445986,1.20121 -1.603172,-0.5604 -1.603123,-0.5603 0.228617,-0.84588 0.228674,-0.8458 -1.479875,0.14773 c -0.813985,0.0811 -1.755371,0.55598 -2.091927,1.05504 l -0.611928,0.9075 -3.617262,0.0129 -3.617197,0.0129 -0.320462,-0.71023 -0.320442,-0.71025 -3.295243,-1.02727 -3.295314,-1.02734 -0.241733,-1.24531 -0.241605,-1.24515 -3.318849,-0.33744 c -1.825286,-0.18553 -3.71333,-0.60347 -4.195577,-0.92861 l -0.876812,-0.59125 0.273811,-1.18602 0.273812,-1.18591 -4.178453,-0.35023 -4.17851,-0.35032 -0.13094,-0.67301 -0.130746,-0.67311 3.767303,-1.56125 3.767251,-1.56132 -2.856206,0.059 c -3.119059,0.0645 -9.4149973,-0.63146 -12.7260884,-1.40662 l -2.0956889,-0.49068 0.3471363,-0.51473 c 0.1909451,-0.28309 3.8845163,-1.20269 8.2081443,-2.04282 4.3235647,-0.84032 7.8303987,-1.68543 7.7931757,-1.87681 -0.03727,-0.19161 -3.593426,-0.48263 -7.9026702,-0.64716 l -7.8349133,-0.29909 -2.4474028,-1.06428 -2.4474668,-1.06423 1.6935525,-0.32352 c 0.9314388,-0.1782 6.2197733,-0.9239 11.75161,-1.65884 5.5318786,-0.73481 10.0129156,-1.5675 9.9578706,-1.85043 -0.05614,-0.28263 -2.520035,-0.82043 -5.477856,-1.1946 l -5.3778784,-0.68016 -4.7183081,-1.66773 -4.7183626,-1.66782 -1.2437963,-1.41318 c -0.6840823,-0.77731 -1.1050475,-1.61898 -0.9355885,-1.87037 0.1696147,-0.25137 3.6257153,0.11288 7.6802333,0.80937 l 7.3720516,1.26651 3.683269,-0.77626 3.683279,-0.77627 -4.43704,-1.18394 -4.437086,-1.18391 -3.0527644,-2.03988 c -3.473517,-2.32111 -5.7125869,-4.66202 -5.1943221,-5.43058 l 0.3522596,-0.52221 2.8170845,1.21725 2.8170099,1.21717 2.3899065,-0.17538 2.389864,-0.17527 -1.451514,-3.04802 -1.451614,-3.04809 0.873564,-0.39412 0.873601,-0.39401 3.175786,2.13594 3.17576,2.13596 2.946543,0.98427 2.946452,0.98421 2.376152,-0.58752 c 4.979251,-1.23027 10.077977,-2.77343 9.796431,-2.96335 -0.161612,-0.10897 -2.789618,0.27315 -5.840652,0.84874 l -5.54733,1.04654 -5.61448,-2.17706 c -3.087959,-1.19742 -6.543756,-2.80381 -7.679437,-3.56967 l -2.0649388,-1.39248 0.6158728,-0.91327 0.61593,-0.91328 10.613134,1.61947 10.613054,1.61941 4.856821,-0.84687 4.856728,-0.84677 -1.850084,-0.19127 c -1.017573,-0.10534 -2.839255,0.0529 -4.048237,0.35107 l -2.19807,0.5423 -4.428173,-1.42036 -4.428253,-1.42043 -4.857105,-3.08445 -4.857104,-3.08445 0.217686,-0.83729 0.21774,-0.8372 4.769497,0.99846 c 2.623253,0.54917 7.541683,1.95546 10.929893,3.12506 3.388204,1.16961 6.641624,2.03677 7.229856,1.92697 l 1.069362,-0.19992 -3.999032,-2.75233 -3.999083,-2.75231 -1.772318,-2.36974 -1.772362,-2.36971 0.259453,-0.9079 0.259425,-0.90802 5.494312,3.06591 c 3.021994,1.68621 6.921812,4.02842 8.66639,5.20492 l 3.171965,2.13896 6.197752,2.21273 6.197734,2.21273 7.203291,0.40206 7.203248,0.40208 5.683075,1.78738 c 3.125672,0.98303 8.17711,2.1535 11.225398,2.60107 l 5.542264,0.81371 0.382028,-1.39025 c 0.2101,-0.76466 0.989536,-4.9451 1.732058,-9.28987 l 1.350068,-7.89952 1.879329,-3.46067 1.87942,-3.46063 3.03278,-2.62198 c 1.66801,-1.44211 4.35525,-3.37311 5.9717,-4.29111 l 2.93903,-1.66906 2.75514,-4.08561 2.75515,-4.08562 0.69092,0.46601 0.69085,0.4659 -0.44197,1.9161 c -0.24303,1.05391 -1.10405,3.97087 -1.91342,6.48216 l -1.47144,4.56604 1.07491,13.33569 1.07496,13.33576 3.01982,9.94475 3.01985,9.94487 0.14514,5.25225 0.14514,5.25237 2.4406,-0.16171 2.44057,-0.16171 4.67587,2.50479 4.67578,2.50468 0.5373,3.99261 c 0.29546,2.19592 0.33746,4.28888 0.0933,4.65101 l -0.44399,0.65843 -0.49801,-1.81495 c -0.27445,-0.99807 -0.73081,-2.28345 -1.01515,-2.856 l -0.51669,-1.04123 -0.26903,1.16515 -0.26896,1.16516 -3.88423,-3.04898 -3.88427,-3.04909 -0.36745,0.54517 c -0.20213,0.29975 -0.17532,1.72929 0.0596,3.17667 l 0.42737,2.63154 -0.75114,1.13337 -0.75117,1.13341 1.18713,1.15818 c 0.65285,0.63696 1.29097,1.62802 1.41777,2.20234 l 0.23038,1.04426 -1.7703,-1.1938 -1.7703,-1.19378 -0.53003,-4.53969 -0.53,-4.5397 -0.24732,1.80141 c -0.29281,2.13263 -1.55762,7.59512 -1.87235,8.08592 -0.12153,0.18869 -0.0136,1.40545 0.23872,2.70332 l 0.45845,2.35993 -5.08654,7.8044 c -2.79753,4.29245 -5.328,8.52722 -5.62309,9.41067 -0.29506,0.8835 -1.3172,6.44214 -2.2715,12.3526 l -1.73492,10.74637 1.59595,3.92077 c 0.87775,2.15649 1.45335,4.14679 1.27886,4.423 -0.29735,0.47107 2.05563,11.83733 4.16547,20.12194 l 0.94369,3.7075 -1.53529,-1.00664 z"
         id="path3968"
         inkscape:connector-curvature="0"
         inkscape:transform-center-x="-80.118741"
         inkscape:transform-center-y="-238.9687" />
      <path
         inkscape:connector-curvature="0"
         id="path3970"
         d="m 229.90965,939.58257 -1.83314,0.10012 0.034,0.81516 0.034,0.81515 -1.35241,0.0569 -1.35237,0.0569 -3.73839,-3.72328 -3.73841,-3.72332 0.59679,1.41349 0.59675,1.41348 -1.12978,-0.38044 c -0.62138,-0.20923 -2.39898,-2.08372 -3.95013,-4.16547 -1.55116,-2.08174 -4.35989,-5.17576 -6.24155,-6.87559 -1.88166,-1.69986 -4.45377,-4.02715 -5.71578,-5.17178 -4.43223,-4.01998 -14.11654,-10.66864 -18.55492,-12.73865 l -4.48418,-2.09135 -3.42324,-2.77438 -3.42325,-2.77438 -1.4279,1.34298 c -0.78537,0.73864 -2.36545,2.39251 -3.5113,3.67523 l -2.0834,2.33227 -1.49563,0.0619 -1.49562,0.0619 0.0335,0.80399 0.0335,0.80402 -5.67655,3.10535 -5.67647,3.10537 -2.76373,0.11485 -2.76371,0.11495 0.0339,0.81284 0.0339,0.81281 -2.60372,1.20615 -2.60374,1.20613 -2.32924,-0.55071 -2.32918,-0.55072 -1.25708,2.41779 -1.25704,2.41783 -1.62306,0.49967 -1.62311,0.49968 -0.31754,-0.81663 -0.31753,-0.81661 -1.10405,0.99658 c -0.60721,0.5481 -1.08353,1.48867 -1.05851,2.09012 l 0.0451,1.09361 -2.90478,2.15558 -2.90484,2.15563 -0.67923,-0.38173 -0.67927,-0.38173 -3.26247,1.1272 -3.26245,1.1272 -0.93349,-0.85887 -0.93351,-0.85888 -2.87218,1.69665 c -1.57964,0.9333 -3.34763,1.71652 -3.92879,1.74068 l -1.05668,0.0434 -0.48287,-1.11725 -0.48291,-1.11725 -3.572046,2.19607 -3.572063,2.19609 -0.504563,-0.46428 -0.504591,-0.46431 2.10727,-3.49135 2.107235,-3.49137 -2.264687,1.74151 c -2.473088,1.90178 -7.954913,5.07541 -11.080554,6.41496 l -1.978404,0.84789 -0.02516,-0.62033 c -0.01413,-0.3412 2.414278,-3.27218 5.3966,-6.51337 2.982291,-3.2412 5.304955,-6.00109 5.161476,-6.13311 -0.143492,-0.13248 -3.179469,1.74257 -6.74655,4.16585 l -6.485643,4.40591 -2.601746,0.59457 -2.601709,0.59466 1.172263,-1.26433 c 0.644765,-0.69531 4.45985,-4.43268 8.478,-8.30514 4.018101,-3.87251 7.132175,-7.20055 6.920101,-7.39567 -0.211957,-0.19521 -2.51558,0.83404 -5.118947,2.28703 l -4.733424,2.64178 -4.788045,1.45556 -4.788045,1.45556 -1.839618,-0.40016 c -1.01178,-0.22011 -1.849915,-0.64807 -1.862519,-0.95105 -0.01236,-0.30298 2.986094,-2.05945 6.663742,-3.90332 l 6.686641,-3.35248 2.505183,-2.80946 2.505204,-2.80947 -4.274681,1.67829 -4.274649,1.67824 -3.667669,0.16805 c -4.173327,0.19121 -7.364486,-0.36559 -7.402992,-1.29178 l -0.02556,-0.6294 2.990084,-0.69062 2.990007,-0.69078 1.820261,-1.55853 1.820245,-1.55851 -2.976434,-1.59326 -2.976445,-1.59324 0.469514,-0.83544 0.469518,-0.83548 3.823828,-0.16321 3.8238,-0.16321 2.956051,-0.95503 2.956078,-0.95503 1.564385,-1.88254 c 3.27904,-3.94389 6.469289,-8.21007 6.130018,-8.19597 -0.19441,0.008 -2.084018,1.87438 -4.199144,4.1473 l -3.845714,4.13262 -5.811732,1.57691 c -3.196416,0.86738 -6.931472,1.62361 -8.300113,1.68043 l -2.488398,0.10398 -0.04543,-1.10061 -0.04545,-1.10062 9.505576,-4.99053 9.505603,-4.99047 3.40819,-3.56224 3.4082,-3.56226 -1.603085,0.94328 c -0.881667,0.51884 -2.254698,1.72643 -3.051136,2.68361 l -1.448089,1.74034 -4.407723,1.48265 -4.407757,1.48263 -5.740015,0.39725 -5.74003,0.39726 -0.321223,-0.80322 -0.321206,-0.80325 4.432342,-2.02481 c 2.437762,-1.11361 7.231873,-2.89837 10.653545,-3.9661 3.421683,-1.06774 6.555439,-2.2991 6.963919,-2.73635 l 0.742711,-0.79495 -4.852224,0.15577 -4.852186,0.15578 -2.832369,-0.85682 -2.832381,-0.85681 -0.329558,-0.88493 -0.329551,-0.8849 6.242074,-0.79005 c 3.433159,-0.43461 7.962209,-0.8617 10.064576,-0.94914 l 3.822529,-0.15851 6.302359,-1.89417 6.30242,-1.89418 6.03817,-3.9483 6.03815,-3.9483 5.63578,-1.93137 c 3.09967,-1.06228 7.86099,-3.11575 10.58073,-4.56328 l 4.94491,-2.63182 -0.51692,-1.34596 c -0.28438,-0.74022 -2.1361,-4.5684 -4.115,-8.50692 l -3.59807,-7.16097 -0.5393,-3.90094 -0.53928,-3.9009 0.88672,-3.90975 c 0.48774,-2.15035 1.50618,-5.29887 2.2632,-6.99669 l 1.3764,-3.0869 -0.20485,-4.92352 -0.20485,-4.92355 0.83265,-0.0349 0.83263,-0.0349 0.78053,1.80486 c 0.42931,0.99269 1.46604,3.85193 2.30382,6.35388 l 1.52328,4.54906 8.77456,10.09966 8.77454,10.09964 8.32949,6.21607 8.32948,6.21604 3.23183,4.14279 3.23186,4.14281 1.86934,-1.57738 1.86931,-1.57738 5.25021,-0.75651 5.25017,-0.7565 2.80052,2.89597 c 1.54029,1.5928 2.81539,3.25304 2.83354,3.68943 l 0.033,0.79344 -1.4775,-1.16574 c -0.81263,-0.64118 -1.94261,-1.40515 -2.51103,-1.69772 l -1.03352,-0.53192 0.47446,1.09768 0.47443,1.09767 -4.93566,-0.15126 -4.93567,-0.15121 0.0267,0.65683 c 0.0153,0.36123 0.88439,1.49631 1.93193,2.52235 l 1.90459,1.86554 0.0665,1.3581 0.0665,1.3581 1.64266,0.22839 c 0.90343,0.12574 2.00493,0.54525 2.4477,0.93229 l 0.80511,0.70384 -2.13339,0.0893 -2.13331,0.0893 -3.11909,-3.34078 -3.11908,-3.34073 0.86925,1.59703 c 1.0291,1.89074 3.25035,7.03892 3.28805,7.62078 0.0148,0.22396 0.82249,1.1397 1.79546,2.03499 l 1.76911,1.6278 0.53323,9.30039 c 0.29325,5.11518 0.76749,10.02552 1.05388,10.91186 0.28636,0.88634 2.76009,5.96812 5.49715,11.29282 l 4.97647,9.68134 3.61034,2.2103 c 1.98566,1.21568 3.62944,2.47685 3.65288,2.80264 0.0389,0.55564 8.67553,8.31163 15.28766,13.73067 l 2.95915,2.42467 -1.83313,0.10012 z"
         style="fill:#ffdd55" />
      <path
         inkscape:transform-center-y="-132.72398"
         inkscape:transform-center-x="-228.06174"
         inkscape:connector-curvature="0"
         id="path3972"
         d="m 91.468049,669.97831 -0.622957,-1.72695 -0.771025,0.26677 -0.771061,0.26679 -0.442601,-1.27916 -0.442655,-1.27918 2.491525,-4.65086 2.491545,-4.65088 -1.182263,0.97785 -1.182276,0.97793 0.03968,-1.19143 c 0.02185,-0.65536 1.306176,-2.89671 2.854179,-4.98083 1.54798,-2.08412 3.70434,-5.66349 4.79122,-7.95456 1.08703,-2.29098 2.57697,-5.42341 3.31054,-6.96115 2.57617,-5.40079 6.16046,-16.58754 6.86728,-21.43358 l 0.71405,-4.89608 1.67319,-4.07632 1.67318,-4.07635 -1.69674,-0.98157 c -0.93318,-0.54004 -2.9715,-1.5778 -4.52953,-2.30664 l -2.83277,-1.32497 -0.48947,-1.41447 -0.48955,-1.41461 -0.76047,0.26308 -0.76043,0.26314 -4.60604,-4.54423 -4.606043,-4.54433 -0.904515,-2.61399 -0.904601,-2.61398 -0.768792,0.26597 -0.768813,0.26618 -1.903699,-2.14712 -1.903673,-2.1472 -0.142085,-2.38921 -0.142027,-2.38923 -2.677175,-0.50899 -2.677078,-0.50891 -0.945098,-1.41103 -0.945116,-1.41091 0.69088,-0.53895 0.690879,-0.53885 -1.271888,-0.77082 c -0.699486,-0.42411 -1.737367,-0.60992 -2.306211,-0.41308 l -1.034346,0.35796 -2.899713,-2.16251 -2.899652,-2.16247 0.170414,-0.76032 0.170445,-0.76031 -2.017454,-2.80069 -2.01746,-2.80077 0.554767,-1.14082 0.554775,-1.14062 -2.450683,-2.26335 c -1.347846,-1.24473 -2.606282,-2.71299 -2.796528,-3.26261 l -0.345846,-0.99939 0.931327,-0.78372 0.931271,-0.78365 -3.130252,-2.78993 -3.130248,-2.79002 0.299579,-0.61672 0.2998,-0.61668 3.949731,1.01474 3.949725,1.01466 -2.318948,-1.6685 c -2.53239,-1.82198 -7.14787,-6.16026 -9.329424,-8.76889 l -1.380738,-1.65114 0.586704,-0.20302 c 0.322708,-0.11164 3.828072,1.37181 7.789416,3.29726 3.9614,1.92526 7.272723,3.3561 7.357914,3.18072 0.08527,-0.17559 -2.582992,-2.54435 -5.929365,-5.26438 l -6.084259,-4.94539 -1.317375,-2.32099 -1.317468,-2.32099 1.548308,0.75863 c 0.851714,0.41704 5.527611,2.99745 10.391711,5.73275 4.864072,2.73541 8.946792,4.76137 9.072728,4.5021 0.12492,-0.25966 -1.521918,-2.16966 -3.661908,-4.24551 l -3.890991,-3.77417 -2.770465,-4.16753 -2.770452,-4.16763 -0.145528,-1.87695 c -0.08,-1.03236 0.08901,-1.95814 0.375498,-2.05733 0.286606,-0.0991 2.830918,2.26814 5.654098,5.26045 l 5.133104,5.44082 3.411012,1.59185 3.411033,1.59186 -2.836194,-3.61179 -2.836247,-3.6118 -1.215338,-3.4646 c -1.382792,-3.94217 -1.76676,-7.15867 -0.890764,-7.46182 l 0.595315,-0.20591 1.521054,2.66534 1.521036,2.66525 2.016044,1.29534 2.015956,1.29543 0.670408,-3.30876 0.670388,-3.30887 0.935137,0.20964 0.935118,0.20976 1.25598,3.61528 1.255961,3.6153 1.764491,2.55684 1.764462,2.55675 2.252626,0.95759 c 4.719855,2.00736 9.723175,3.83632 9.612155,3.51536 -0.0637,-0.18419 -2.39433,-1.45729 -5.17935,-2.8298 l -5.063671,-2.49548 -3.180992,-5.11305 c -1.749522,-2.81221 -3.547468,-6.17233 -3.995389,-7.4668 l -0.814466,-2.35365 1.040972,-0.3602 1.041025,-0.36018 7.512291,7.66986 7.51227,7.66976 4.39167,2.24032 4.39154,2.24037 -1.36422,-1.26422 c -0.75027,-0.69547 -2.30173,-1.6632 -3.44741,-2.15103 l -2.08308,-0.88677 -2.68709,-3.79548 -2.68712,-3.7956 -2.030433,-5.38355 -2.030418,-5.38355 0.67697,-0.53864 0.676969,-0.53854 3.213422,3.6632 c 1.76737,2.01479 4.85487,6.09351 6.86115,9.06382 2.00628,2.97033 4.08647,5.61788 4.62271,5.88344 l 0.97502,0.48251 -1.5439,-4.6026 -1.54397,-4.60262 0.007,-2.95917 0.006,-2.95919 0.75279,-0.57 0.75284,-0.57013 2.551,5.75149 c 1.40319,3.16336 3.11413,7.37849 3.80219,9.36701 l 1.25112,3.61542 3.62589,5.49192 3.62587,5.49192 5.51745,4.64833 5.51739,4.6483 3.46991,4.84271 c 1.90845,2.66345 5.24395,6.63354 7.41217,8.82241 l 3.9422,3.97968 1.14052,-0.88201 c 0.62729,-0.48514 3.76156,-3.35916 6.96501,-6.38673 l 5.82445,-5.50462 3.58127,-1.6379 3.58131,-1.6378 3.99964,-0.27451 c 2.1998,-0.15101 5.50814,-0.0807 7.35189,0.15639 l 3.3523,0.43103 4.65685,-1.61144 4.65687,-1.61144 0.27245,0.78759 0.27247,0.78746 -1.50431,1.26641 c -0.82736,0.69661 -3.2679,2.51149 -5.42347,4.03306 l -3.91913,2.76664 -7.15112,11.30742 -7.15112,11.30749 -3.55931,9.76467 -3.55935,9.76478 -3.03889,4.28629 -3.03896,4.2864 2.04837,1.33673 2.04835,1.33672 2.23372,4.81126 2.23372,4.81112 -1.96872,3.51479 c -1.08282,1.93309 -2.30645,3.63161 -2.71918,3.77447 l -0.75047,0.25971 0.69206,-1.75017 c 0.3801,-0.9628 0.78734,-2.26458 0.90394,-2.89312 l 0.21236,-1.14283 -0.91497,0.76993 -0.91493,0.76997 -1.27392,-4.7708 -1.27391,-4.77092 -0.62125,0.21513 c -0.34165,0.11824 -1.17891,1.27724 -1.86051,2.57551 l -1.23904,2.3606 -1.28132,0.45493 -1.28137,0.45494 0.25343,1.63902 c 0.1393,0.90141 0.0542,2.07705 -0.18941,2.61238 l -0.44308,0.97326 -0.69825,-2.01782 -0.69825,-2.0178 2.30315,-3.9478 2.30318,-3.94781 -1.27979,1.29165 c -1.51514,1.52913 -5.80756,5.13658 -6.35399,5.33992 -0.21049,0.0779 -0.85509,1.11546 -1.43298,2.30467 l -1.05103,2.16211 -8.7546,3.18415 c -4.81498,1.75134 -9.3818,3.61699 -10.1484,4.14604 -0.7666,0.52912 -4.92275,4.3592 -9.23601,8.51132 l -7.84219,7.54948 -1.07919,4.09326 c -0.59361,2.25134 -1.32895,4.18831 -1.63437,4.30432 -0.52069,0.19801 -5.467,10.6986 -8.75662,18.58939 l -1.472553,3.53097 -0.622789,-1.72702 z"
         style="fill:#ffdd55" />
    </g>
    <flowRoot
       xml:space="preserve"
       id="flowRoot3988"
       style="font-size:40px;font-style:normal;font-variant:normal;font-weight:normal;font-stretch:normal;text-align:center;line-height:125%;letter-spacing:0px;word-spacing:0px;text-anchor:middle;fill:#000000;fill-opacity:1;stroke:none;font-family:Swis721 BdOul BT;-inkscape-font-specification:Swis721 BdOul BT"
       transform="matrix(1.4887921,0,0,1.4887921,-186.14793,254.29317)"><flowRegion
         id="flowRegion3990"><rect
           id="rect3992"
           width="293.95438"
           height="204.05081"
           x="219.20311"
           y="270.25516" /></flowRegion><flowPara
         id="flowPara3994"
         style="font-style:normal;font-variant:normal;font-weight:normal;font-stretch:normal;fill:#ffffff;font-family:Impact;-inkscape-font-specification:Impact">KUMPNI</flowPara><flowPara
         id="flowPara3996"
         style="font-style:normal;font-variant:normal;font-weight:normal;font-stretch:normal;fill:#ffffff;font-family:Impact;-inkscape-font-specification:Impact">HK</flowPara></flowRoot>  </g>
</svg>
