<?xml version="1.0" encoding="UTF-8" standalone="no"?>
<!-- Created with Inkscape (http://www.inkscape.org/) -->

<svg
   xmlns:dc="http://purl.org/dc/elements/1.1/"
   xmlns:cc="http://creativecommons.org/ns#"
   xmlns:rdf="http://www.w3.org/1999/02/22-rdf-syntax-ns#"
   xmlns:svg="http://www.w3.org/2000/svg"
   xmlns="http://www.w3.org/2000/svg"
   version="1.1"
   width="600"
   height="600"
   preserveAspectRatio="xMinYMin meet"
   viewBox="0 0 600 600"
   id="exit">
  <defs
     id="defs4" />
  <metadata
     id="metadata7">
    <rdf:RDF>
      <cc:Work
         rdf:about="">
        <dc:format>image/svg+xml</dc:format>
        <dc:type
           rdf:resource="http://purl.org/dc/dcmitype/StillImage" />
        <dc:title></dc:title>
      </cc:Work>
    </rdf:RDF>
  </metadata>
  <g
     transform="translate(-64.674409,-149.41583)"
     id="layer1">
    <path
       d="m 64.674409,449.41583 0,-300 300.000001,0 300,0 0,300 0,300 -33.66837,0 -33.66837,0 -34.83163,-34.71057 -34.83163,-34.71056 0,-36.28944 0,-36.28943 29.4182,0 29.41822,0 1.58178,-0.60699 1.58179,-0.60699 0,-1.30641 c 0,-0.71853 -3.19296,-9.55789 -7.09548,-19.64302 l -7.09547,-18.33659 -3.02,-5.32356 -3.02,-5.32356 -5.32869,-5.45797 -5.32867,-5.45797 -4.80584,-2.13586 c -5.97904,-2.65726 -15.30737,-4.71974 -21.55584,-4.76595 l -4.75,-0.0351 0,-171.5 0,-171.5 -163.5,0 -163.50001,0 0,95.5 0,95.5 21.29179,0 21.2918,0 4.07812,-4.25 c 2.24298,-2.3375 7.36038,-8.525 11.37201,-13.75 4.01164,-5.225 9.39647,-11.975 11.96628,-15 2.56981,-3.025 7.95403,-9.775 11.96494,-15 4.01089,-5.225 9.3721,-11.65659 11.91381,-14.29243 l 4.62126,-4.79243 6.21297,-4.05091 6.21298,-4.05091 6.28702,-2.06956 6.28703,-2.06956 54.80557,-0.44156 54.80559,-0.44156 9.55257,1.1266 9.55259,1.1266 5.44975,2.66848 5.44975,2.66848 4.97244,4.89464 4.97247,4.89464 3.60087,7.16474 c 1.98047,3.94061 9.33593,17.73974 16.34546,30.66474 l 12.74457,23.5 1.62418,4.78495 1.62419,4.78494 0,3.39996 c 0,6.85428 -3.47543,12.17369 -10.21016,15.62747 l -3.71017,1.90268 -6.08949,0 -6.08951,0 -2.89864,-1.49895 -2.89864,-1.49895 -2.42269,-3.25105 c -1.33248,-1.78808 -8.66456,-15.28855 -16.29352,-30.00105 l -13.87083,-26.75 -22.75818,0 -22.75817,0 0,0.56704 c 0,0.31187 2.87685,7.62437 6.39299,16.25 3.51615,8.62563 8.72587,21.75796 11.57716,29.18296 2.85129,7.425 7.79495,19.8 10.98592,27.5 l 5.80177,14 1.19038,16 c 1.48075,19.90258 5.59644,62.8606 7.61575,79.49033 l 1.51667,12.49032 0.98127,0.98127 0.98126,0.98126 46.72841,0.15567 46.72841,0.15568 4.04934,1.43663 c 2.22713,0.79015 6.08878,2.83981 8.58143,4.5548 l 4.5321,3.11817 3.7715,5.47605 3.7715,5.47606 3.95462,10.84188 c 2.17504,5.96303 4.04122,11.51688 4.14706,12.34188 l 0.19245,1.5 -78.5,0 -78.5,0 -2.67293,-0.74971 -2.67293,-0.74971 -3.11298,-2.6194 -3.11299,-2.61941 -1.63283,-3.13089 c -2.50198,-4.79743 -2.9346,-7.92111 -7.70466,-55.63088 l -4.44915,-44.5 -0.93525,-2.49983 -0.93526,-2.49983 -4.55994,9.07937 c -2.50796,4.99366 -10.40559,21.41858 -17.55028,36.49983 -7.14469,15.08125 -20.3412,42.50231 -29.32557,60.93568 -8.98438,18.43337 -19.89473,41.05793 -24.24523,50.2768 l -7.91,16.76159 -4.80473,4.88111 -4.80473,4.88112 -4.78527,1.5676 -4.78527,1.56761 -8,0.5481 -8,0.54811 -14.61528,-0.77363 -14.61528,-0.77363 22.45188,-46 c 12.34854,-25.3 30.47081,-62.875 40.27171,-83.5 9.8009,-20.625 22.30723,-46.77519 27.79183,-58.11154 l 9.972,-20.61154 -6.24983,-16.38846 c -7.12092,-18.67264 -24.30724,-59.97886 -25.46435,-61.20191 l -0.76959,-0.81346 -11.83169,14.31346 c -6.50743,7.8724 -14.26059,17.23845 -17.22926,20.81345 l -5.39756,6.5 -6.01561,3.70589 -6.01561,3.70589 -7.14168,1.48221 -7.14168,1.48221 -22.96694,0.60389 -22.96693,0.6039 -0.76775,1.208 -0.76775,1.20801 -0.0153,121.6602 -0.0153,121.6602 3.85079,4.8398 c 2.11793,2.66189 13.99112,14.62388 26.38485,26.5822 12.39374,11.95833 26.23458,25.79583 30.75743,30.75 l 8.22332,9.0076 -102.6082,0 -102.608211,0 0,-300 z m 216.994561,265.41479 -34.49456,-34.58521 25.5,0.6511 25.5,0.6511 5.5,1.5238 5.5,1.5238 7,3.64222 7,3.64221 17.83704,17.51809 c 9.81039,9.63496 22.56879,22.5806 28.35204,28.7681 l 10.51497,11.25 -31.85746,0 -31.85747,0 z"
       id="path2996"
       style="fill:#138f34;fill-opacity:1" />
    <path
       d="m 450.02296,268.4838 a 46.467018,46.467018 0 1 1 -92.93404,0 46.467018,46.467018 0 1 1 92.93404,0 z"
       transform="matrix(0.89130435,0,0,0.89130435,-45.533726,21.1018)"
       id="path3002"
       style="fill:#138f34;fill-opacity:1;stroke:none" />
  </g>
</svg>
