<?xml version="1.0" encoding="UTF-8" standalone="no"?>
<!-- Created with Inkscape (http://www.inkscape.org/) -->

<svg
   xmlns:dc="http://purl.org/dc/elements/1.1/"
   xmlns:cc="http://creativecommons.org/ns#"
   xmlns:rdf="http://www.w3.org/1999/02/22-rdf-syntax-ns#"
   xmlns:svg="http://www.w3.org/2000/svg"
   xmlns="http://www.w3.org/2000/svg"
   version="1.1"
   width="46"
   height="73"
   preserveAspectRatio="xMinYMin meet"
   viewBox="0 0 46 73"
   id="kos">
  <g
     transform="translate(-117.02375,-447.15179)"
     id="layer1">
    <g
       transform="translate(-124.83718,126.34573)"
       id="g4529">
      <g
         transform="matrix(1.2555954,0,0,1.0632776,-196.02797,-33.200654)"
         id="g4459"
         style="fill:#ffffff;fill-opacity:1;stroke:#000000;stroke-opacity:1">
        <path
           d="m 361.1865,373.29835 -11.84402,27.63518 35.34338,0 -12.81633,-27.63517 c -4.56811,-1.47989 -6.17899,-1.1167 -10.68303,-10e-6 z"
           id="path4461"
           style="fill:#ffffff;fill-opacity:1;stroke:#000000;stroke-width:0.76173091px;stroke-linecap:butt;stroke-linejoin:miter;stroke-opacity:1" />
        <path
           d="m 353.54457,378.89229 c 3.17607,11.47942 7.81466,17.16141 13.81185,17.16141 5.99719,0 8.53875,-5.75919 11.82077,-17.16141 3.28202,-11.40222 -10.19321,-37.51977 -12.14753,-37.51977 -1.95432,0 -16.66116,26.04035 -13.48509,37.51977 z"
           id="path4467"
           style="fill:#ffffff;fill-opacity:1;stroke:#000000;stroke-width:1;stroke-linecap:butt;stroke-linejoin:miter;stroke-miterlimit:4;stroke-opacity:1;stroke-dasharray:none" />
        <path
           d="m 378.37289,381.40377 c -5.16716,-12.19015 -5.10906,-21.61181 -5.41167,-28.89157 0,0 6.65411,3.11535 8.40864,7.1851 3.00086,8.90291 -0.60388,21.63933 -2.99697,21.70647 z"
           id="path4465"
           style="fill:#ffffff;fill-opacity:1;stroke:#000000;stroke-width:1;stroke-linecap:butt;stroke-linejoin:miter;stroke-miterlimit:4;stroke-opacity:1;stroke-dasharray:none" />
        <path
           d="m 354.59609,381.40377 c 5.16716,-12.19015 5.15934,-21.73057 5.46195,-29.01033 0,0 -6.70439,3.23411 -8.45892,7.30386 -3.00086,8.90291 0.60388,21.63933 2.99697,21.70647 z"
           id="path3070"
           style="fill:#ffffff;fill-opacity:1;stroke:#000000;stroke-width:1;stroke-linecap:butt;stroke-linejoin:miter;stroke-miterlimit:4;stroke-opacity:1;stroke-dasharray:none" />
      </g>
      <path
         d="m 373.25138,330.22937 a 11.490485,11.490485 0 1 1 -22.98097,0 11.490485,11.490485 0 1 1 22.98097,0 z"
         transform="matrix(1.0210615,0,0,1.0210615,-104.84643,-4.1467638)"
         id="path4519"
         style="fill:#ffffff;fill-opacity:1;fill-rule:nonzero;stroke:#000000;stroke-width:1;stroke-linecap:round;stroke-linejoin:round;stroke-miterlimit:4;stroke-opacity:1;stroke-dasharray:none;stroke-dashoffset:0" />
      <path
         d="m 276.28576,332.32615 c -1.22843,1.19183 -3.05988,4.73636 -3.8108,9.09783 l 13.28695,-1.62725 z"
         id="path4457"
         style="fill:#ffd42a;fill-opacity:1;stroke:#000000;stroke-opacity:1" />
    </g>
  </g>
</svg>
